<svg width="1440" height="680" viewBox="0 0 1440 680" fill="none" xmlns="http://www.w3.org/2000/svg">
<path d="M1440 140.13L1400 135.802C1360 131.146 1280 122.979 1200 96.5979C1120 70.707 1040 26.6027 960 9.45099C880 -7.70068 800 0.466797 720 18.1902C640 35.5869 560 61.7228 480 66.0515C400 70.707 320 52.7386 240 61.7228C160 70.707 80 105.01 40 122.734L0 140.13V166.266H40C80 166.266 160 166.266 240 166.266C320 166.266 400 166.266 480 166.266C560 166.266 640 166.266 720 166.266C800 166.266 880 166.266 960 166.266C1040 166.266 1120 166.266 1200 166.266C1280 166.266 1360 166.266 1400 166.266H1440V140.13Z" fill="#FFEDFF"/>
<path d="M1440 680H0V166.266H1440V680Z" fill="#FFEDFF"/>
</svg>
