<svg width="1440" height="833" viewBox="0 0 1440 833" fill="none" xmlns="http://www.w3.org/2000/svg">
<mask id="mask0_352_2940" style="mask-type:alpha" maskUnits="userSpaceOnUse" x="0" y="0" width="1440" height="833">
<path d="M0 661L40 666.3C80 672 160 682 240 714.3C320 746 400 800 480 821C560 842 640 832 720 810.3C800 789 880 757 960 751.7C1040 746 1120 768 1200 757C1280 746 1360 704 1400 682.3L1440 661V629H1400C1360 629 1280 629 1200 629C1120 629 1040 629 960 629C880 629 800 629 720 629C640 629 560 629 480 629C400 629 320 629 240 629C160 629 80 629 40 629H0V661Z" fill="url(#paint0_linear_352_2940)"/>
<path d="M0 0H1440V629H0V0Z" fill="url(#paint1_linear_352_2940)"/>
</mask>
<g mask="url(#mask0_352_2940)">
<path d="M0 661L40 666.3C80 672 160 682 240 714.3C320 746 400 800 480 821C560 842 640 832 720 810.3C800 789 880 757 960 751.7C1040 746 1120 768 1200 757C1280 746 1360 704 1400 682.3L1440 661V629H1400C1360 629 1280 629 1200 629C1120 629 1040 629 960 629C880 629 800 629 720 629C640 629 560 629 480 629C400 629 320 629 240 629C160 629 80 629 40 629H0V661Z" fill="url(#paint2_linear_352_2940)"/>
<path d="M0 0H1440V629H0V0Z" fill="url(#paint3_linear_352_2940)"/>
<path d="M184.027 741.853L162.784 767.115C160.457 770.046 160.758 774.191 163.487 776.618L177.128 788.252C180.059 790.578 184.204 790.277 186.632 787.549L192.802 780.172L201.295 779.469C201.8 779.469 202.306 778.964 202.205 778.257L201.502 769.764L207.673 762.388C209.999 759.457 209.698 755.312 206.97 752.884L193.328 741.251C190.701 738.52 186.354 738.922 184.027 741.853Z" fill="#FF0B0B"/>
<path d="M194.222 771.883C194.121 772.186 193.716 772.388 193.413 772.287L183.505 773.192C183.505 773.192 183.303 773.293 183 773.191C182.798 773.292 182.494 773.191 181.989 773.191C181.483 773.191 180.978 773.19 180.675 773.089C180.169 773.089 179.563 772.886 179.159 772.583C178.552 772.38 178.148 772.077 177.643 771.571C176.329 770.458 175.42 769.144 175.32 767.425C175.118 766.01 175.625 764.493 176.94 763.079C177.243 762.675 177.547 762.27 178.153 761.967C178.558 761.765 179.164 761.462 179.569 761.26C179.973 761.058 180.479 761.059 180.883 760.857C181.086 760.756 181.389 760.857 181.591 760.756C181.49 760.554 181.591 760.251 181.49 760.048C181.491 759.543 181.592 759.24 181.592 758.734C181.592 758.229 181.795 757.622 181.998 757.016C182.2 756.409 182.504 756.005 182.807 755.601C183.92 754.287 185.234 753.378 186.751 753.379C188.166 753.177 189.682 753.684 191.097 754.999C192.411 756.111 193.421 758.134 193.722 760.763L194.526 770.468C194.425 771.277 194.323 771.58 194.222 771.883Z" fill="white"/>
<path d="M99.7483 679.331L84.1699 697.722C82.4501 699.844 82.7517 702.978 84.6715 704.799L94.7764 713.397C96.8985 715.117 100.033 714.815 101.853 712.896L106.406 707.338L112.472 706.836C112.977 706.836 113.28 706.432 113.281 705.926L112.779 699.86L117.331 694.302C119.05 692.18 118.749 689.046 116.829 687.226L106.724 678.627C104.703 677.11 101.569 677.411 99.7483 679.331Z" fill="#FF0B0B"/>
<path d="M107.318 701.576C107.116 701.677 106.914 701.778 106.712 701.879L99.4325 702.482C99.4325 702.482 99.2303 702.583 99.1293 702.38C98.9271 702.481 98.6239 702.38 98.3206 702.279C98.0174 702.178 97.5119 702.177 97.2087 702.076C96.9055 701.975 96.4 701.975 95.9958 701.671C95.5915 701.368 95.2883 701.266 94.8841 700.963C93.8737 699.951 93.1665 699.041 93.1671 698.03C93.0666 696.817 93.3704 695.907 94.3819 694.897C94.6854 694.493 94.8876 694.392 95.2921 694.19C95.6966 693.988 96.1011 693.786 96.3033 693.685C96.7078 693.483 97.011 693.584 97.2133 693.483C97.4155 693.382 97.4155 693.382 97.7187 693.483C97.6178 693.281 97.82 693.18 97.719 692.978C97.8203 692.675 97.7193 692.472 97.7196 691.967C97.7198 691.461 97.8211 691.158 97.9223 690.855C98.0236 690.552 98.3271 690.147 98.4283 689.844C99.2376 688.935 100.35 688.127 101.361 688.127C102.574 688.027 103.585 688.533 104.494 689.342C105.505 690.353 106.111 691.567 106.312 693.488L106.914 700.767C107.521 700.97 107.42 701.273 107.318 701.576Z" fill="white"/>
<path d="M179.917 677.453L143.112 691.283C138.865 692.899 136.84 697.447 138.456 701.694L145.926 721.714C147.541 725.961 152.089 727.985 156.336 726.37L167.156 722.231L176.252 726.28C176.858 726.482 177.768 726.281 177.971 725.674L182.02 716.578L192.839 712.439C197.086 710.823 199.11 706.275 197.495 702.028L190.024 682.008C188.813 678.064 183.962 675.939 179.917 677.453Z" fill="#FF0B0B"/>
<path d="M173.023 714.753C172.619 714.955 172.316 714.854 171.709 714.651L160.996 709.894C160.996 709.894 160.692 709.793 160.389 709.692C160.086 709.59 159.783 709.489 159.277 708.983C158.873 708.68 158.267 708.477 157.762 707.972C157.357 707.668 156.852 707.162 156.347 706.657C155.842 706.151 155.539 705.544 155.236 704.937C154.428 702.814 154.53 700.994 155.239 699.377C155.947 697.76 157.363 696.548 159.487 695.74C160.093 695.437 160.801 695.336 161.307 695.337C162.014 695.236 162.621 695.439 163.227 695.641C163.834 695.844 164.339 695.844 164.743 696.147C165.047 696.249 165.35 696.35 165.35 696.35C165.451 696.047 165.653 695.946 165.755 695.642C166.058 695.238 166.362 694.834 166.564 694.227C167.07 693.722 167.373 693.318 167.879 692.813C168.385 692.308 168.992 692.005 169.598 691.702C171.722 690.894 173.541 690.996 175.159 691.705C176.776 692.413 177.988 693.829 178.796 695.953C179.603 698.076 179.299 700.502 178.185 703.332L173.428 714.046C173.63 714.45 173.428 714.551 173.023 714.753Z" fill="white"/>
<g opacity="0.7">
<path opacity="0.7" d="M113.77 736.255L97.2785 760.408C95.3563 763.136 96.2641 766.978 98.8916 768.698L112.029 777.804C114.758 779.726 118.6 778.818 120.32 776.191L125.075 769.016L132.456 767.604C132.961 767.605 133.366 766.897 133.164 766.493L131.752 759.112L136.508 751.937C138.43 749.208 137.522 745.366 134.895 743.646L121.757 734.541C119.332 732.72 115.389 733.425 113.77 736.255Z" fill="#FF0B0B"/>
<path opacity="0.7" d="M125.281 761.838C125.18 762.141 124.775 762.343 124.472 762.242L115.979 763.956C115.979 763.956 115.777 764.057 115.575 764.158C115.372 764.259 115.069 764.158 114.665 764.36C114.159 764.359 113.856 764.258 113.35 764.258C112.845 764.258 112.542 764.156 111.935 763.954C111.329 763.751 110.925 763.448 110.52 763.144C109.105 762.335 108.297 761.222 108.096 759.807C107.894 758.391 108.299 757.179 109.109 755.764C109.412 755.359 109.716 754.955 110.12 754.753C110.525 754.551 110.828 754.147 111.536 754.046C111.941 753.844 112.345 753.642 112.648 753.744C112.851 753.643 113.053 753.542 113.154 753.744C113.053 753.542 113.154 753.238 113.154 753.238C113.255 752.935 113.053 752.531 113.054 752.025C113.054 751.52 113.054 751.014 113.358 750.61C113.56 750.004 113.661 749.7 113.965 749.296C114.774 747.881 115.887 747.073 117.302 746.872C118.718 746.67 119.931 747.075 121.346 747.885C122.761 748.694 123.669 750.515 123.972 752.638L125.483 761.232C125.483 761.232 125.382 761.535 125.281 761.838Z" fill="white"/>
</g>
<g opacity="0.7">
<path opacity="0.7" d="M154.859 652.065L134.639 654.581C132.314 654.985 130.796 657.006 130.896 659.23L132.306 670.149C132.709 672.474 134.73 673.992 136.954 673.892L142.919 673.187L147.062 676.425C147.365 676.526 147.871 676.526 147.972 676.223L151.209 672.08L157.174 671.375C159.5 670.972 161.017 668.951 160.917 666.727L159.508 655.808C159.105 653.483 156.982 651.763 154.859 652.065Z" fill="#FF0B0B"/>
<path opacity="0.7" d="M146.863 669.954C146.661 670.055 146.358 669.954 146.257 669.752L141.406 666.11C141.406 666.11 141.305 665.908 141.103 666.009C141.103 666.009 140.8 665.907 140.598 665.503C140.497 665.301 140.092 664.997 139.991 664.795C139.891 664.593 139.689 664.188 139.588 663.986C139.386 663.581 139.285 663.379 139.285 662.874C139.184 661.661 139.286 660.852 139.893 660.043C140.5 659.235 141.309 658.831 142.522 658.731C142.724 658.63 143.23 658.63 143.533 658.731C143.836 658.832 144.139 658.934 144.443 659.035C144.746 659.136 145.049 659.237 145.15 659.44L145.453 659.541C145.656 659.44 145.656 659.44 145.757 659.137C145.959 659.036 146.06 658.732 146.465 658.53C146.667 658.43 146.971 658.025 147.173 657.924C147.577 657.722 147.78 657.621 148.083 657.723C149.296 657.622 150.105 657.724 150.913 658.331C151.722 658.938 152.126 659.747 152.226 660.96C152.326 662.173 151.921 663.386 151.011 664.599L147.369 669.449C147.268 669.752 147.065 669.853 146.863 669.954Z" fill="white"/>
</g>
<path d="M95.0362 605.63L63.0778 629.168C59.3358 631.795 58.6254 636.95 61.2519 640.692L73.9806 658.087C76.607 661.829 81.7625 662.54 85.5044 659.913L94.9099 652.943L105.019 654.464C105.827 654.566 106.333 654.061 106.536 653.454L108.057 643.346L117.463 636.375C121.205 633.749 121.915 628.593 119.289 624.851L106.56 607.456C103.934 603.714 98.7782 603.004 95.0362 605.63Z" fill="#FF0B0B"/>
<path d="M98.5546 643.543C98.1501 643.745 97.7456 643.947 97.4424 643.845L85.7163 642.121C85.7163 642.121 85.4131 642.019 85.2108 642.12C84.9076 642.019 84.6044 641.918 83.9979 641.715C83.3914 641.513 82.785 641.31 82.3808 641.007C81.7743 640.804 81.3701 640.501 80.6626 640.096C79.9552 639.691 79.45 639.185 79.147 638.579C77.7327 636.758 77.3293 634.938 77.5323 633.321C77.8366 631.4 78.8484 629.884 80.5676 628.773C81.1743 628.47 81.7811 628.167 82.3878 627.864C82.9945 627.561 83.7022 627.461 84.3087 627.663C85.0164 627.562 85.5219 627.563 86.0274 627.563C86.3306 627.664 86.5328 627.563 86.8361 627.665C86.9373 627.361 86.8363 627.159 86.9376 626.856C86.9379 626.35 87.2414 625.946 87.4439 625.34C87.6464 624.733 88.0511 624.026 88.3546 623.622C88.8604 623.116 89.1639 622.712 89.6696 622.207C91.4901 620.793 93.31 620.389 94.9274 620.592C96.848 620.897 98.3639 621.908 99.576 623.83C100.99 625.65 101.394 627.976 100.987 631.21L99.2626 642.936C99.0603 643.037 98.7568 643.442 98.5546 643.543Z" fill="white"/>
<path d="M14.212 508.536L-9.45339 525.912C-12.0828 527.73 -12.6914 531.572 -10.7722 534.403L-1.37715 547.146C0.441152 549.776 4.28242 550.384 7.1141 548.465L14.1934 543.414L21.5727 544.53C22.0782 544.53 22.685 544.227 22.6852 543.722L23.8012 536.343L30.8805 531.292C33.51 529.473 34.1186 525.632 32.1993 522.8L22.5011 509.956C20.5818 507.124 16.7405 506.516 14.212 508.536Z" fill="#FF0B0B"/>
<path d="M16.6233 536.642C16.4211 536.743 16.0166 536.945 15.7134 536.844L7.01986 535.626C7.01986 535.626 6.81762 535.727 6.71663 535.525C6.51439 535.626 6.21116 535.525 5.80694 535.221C5.50371 535.12 4.89725 534.917 4.59402 534.816C4.29079 534.715 3.88658 534.411 3.28012 534.209C2.8759 533.905 2.47168 533.602 2.16872 532.995C1.25957 531.68 0.855897 530.366 0.957693 529.052C1.05949 527.738 1.96999 526.525 3.28471 525.616C3.68919 525.414 4.09368 525.212 4.49817 525.01C4.90265 524.808 5.40812 524.808 5.91359 524.808C6.41907 524.809 6.7223 524.91 7.12679 524.708C7.32903 524.607 7.43002 524.809 7.63226 524.708C7.73352 524.405 7.73351 524.405 7.83477 524.102C7.93603 523.799 7.9363 523.293 8.2398 522.889C8.5433 522.485 8.54357 521.979 8.84707 521.575C9.15057 521.171 9.45407 520.766 9.85855 520.565C11.1733 519.655 12.4877 519.252 13.8019 519.353C15.1161 519.455 16.3287 520.366 17.2379 521.68C18.147 522.995 18.5504 524.815 18.2459 527.241L17.0281 535.935C16.9268 536.238 16.7246 536.339 16.6233 536.642Z" fill="white"/>
<path d="M108.422 529.21L61.3083 535.048C56.051 535.652 52.2068 540.603 52.8105 545.861L56.0319 571.54C56.6356 576.798 61.5872 580.642 66.8445 580.038L80.8975 578.327L90.3965 585.712C91.1039 586.117 92.1149 586.117 92.5196 585.41L99.9046 575.911L113.958 574.2C119.215 573.596 123.059 568.644 122.455 563.387L119.234 537.707C118.833 532.349 113.881 528.505 108.422 529.21Z" fill="#FF0B0B"/>
<path d="M89.7977 570.851C89.2922 570.851 88.7868 570.85 88.3825 570.547L77.0645 562.049C77.0645 562.049 76.7612 561.948 76.5593 561.543C76.256 561.442 76.0541 561.037 75.5489 560.532C75.0437 560.026 74.5384 559.52 74.2355 558.913C73.7303 558.408 73.3263 557.599 73.0234 556.992C72.6194 556.183 72.4177 555.273 72.317 554.565C72.0151 551.937 72.4207 549.713 73.8369 547.995C75.2532 546.277 77.2756 545.267 79.9042 544.965C80.6119 544.865 81.4207 544.966 82.2294 545.068C83.0381 545.169 83.7455 545.574 84.453 545.979C85.1604 546.384 85.7669 546.586 86.1711 546.89C86.4743 546.991 86.5753 547.193 86.9795 547.497C87.0808 547.193 87.283 547.092 87.5865 546.688C87.89 546.284 88.3958 545.779 88.9015 545.274C89.4072 544.768 90.2162 544.364 90.8229 544.061C91.6319 543.657 92.3396 543.557 93.0474 543.456C95.676 543.154 97.8998 543.56 99.6177 544.976C101.336 546.392 102.345 548.415 102.647 551.043C102.949 553.672 102.139 556.603 99.8121 559.534L91.0109 570.751C90.8089 570.346 90.4044 570.548 89.7977 570.851Z" fill="white"/>
<g opacity="0.7">
<path opacity="0.7" d="M14.2758 578.999L-11.8193 602.642C-14.7525 605.37 -14.9572 610.02 -12.2292 612.953L0.703353 627.214C3.43134 630.147 8.08159 630.352 11.0148 627.624L18.7017 620.754L27.7999 621.264C28.3054 621.264 29.1143 620.86 29.0136 620.153L29.524 611.054L37.2108 604.184C40.144 601.456 40.3487 596.806 37.6207 593.873L24.6882 579.611C21.9602 576.678 17.209 576.271 14.2758 578.999Z" fill="#FF0B0B"/>
<path opacity="0.7" d="M20.6269 612.465C20.2224 612.667 20.0201 612.768 19.5147 612.768L8.89999 612.257C8.89999 612.257 8.69774 612.358 8.39451 612.256C8.19227 612.357 7.88904 612.256 7.28258 612.054C6.7771 612.053 6.17065 611.851 5.86742 611.75C5.26096 611.547 4.85673 611.244 4.25027 611.041C3.64381 610.839 3.13862 610.333 2.63342 609.827C1.42104 608.411 0.613133 606.793 0.816186 605.176C0.816995 603.659 1.52553 602.042 3.14375 600.729C3.44725 600.325 4.05397 600.022 4.6607 599.719C5.26743 599.416 5.77291 599.416 6.37964 599.113C6.88512 599.113 7.39058 599.114 7.79507 598.912C7.99732 598.811 8.30054 598.912 8.50278 598.811C8.60404 598.508 8.50306 598.305 8.60432 598.002C8.60459 597.497 8.70585 597.194 8.90836 596.587C9.11087 595.981 9.31338 595.374 9.61688 594.97C9.8194 594.363 10.3251 593.858 10.7296 593.656C12.1456 592.444 13.7635 591.636 15.3809 591.839C16.8974 591.84 18.6155 592.751 19.8279 594.167C21.0403 595.583 21.8479 597.706 21.7453 600.537L21.2341 611.151C21.0316 611.758 20.9304 612.061 20.6269 612.465Z" fill="white"/>
</g>
<g opacity="0.7">
<path opacity="0.7" d="M172.987 592.227L137.807 591.096C133.763 591.094 130.425 594.023 130.221 598.168L129.503 617.477C129.501 621.521 132.431 624.858 136.576 625.063L147.089 625.372L153.151 631.946C153.657 632.452 154.364 632.351 154.769 632.149L161.343 626.087L171.857 626.396C175.901 626.398 179.238 623.468 179.443 619.323L180.161 600.015C180.062 595.769 176.93 592.532 172.987 592.227Z" fill="#FF0B0B"/>
<path opacity="0.7" d="M154.371 620.725C154.067 620.624 153.562 620.624 153.36 620.219L145.984 612.532C145.984 612.532 145.883 612.33 145.58 612.229C145.479 612.026 145.075 611.723 144.873 611.318C144.671 610.914 144.165 610.408 143.964 610.004C143.762 609.599 143.459 608.992 143.358 608.285C143.257 607.577 142.954 606.97 143.157 606.364C143.158 604.342 143.866 602.725 145.08 601.613C146.294 600.502 147.81 599.997 149.832 599.998C150.338 599.999 150.944 600.201 151.551 600.404C152.157 600.606 152.561 600.91 153.168 601.112C153.572 601.416 153.976 601.719 154.381 602.023C154.482 602.225 154.785 602.326 154.886 602.528C155.088 602.427 155.29 602.326 155.391 602.023C155.796 601.821 156.099 601.417 156.706 601.114C157.313 600.811 157.717 600.609 158.324 600.306C158.931 600.003 159.436 600.003 159.942 600.004C161.964 600.005 163.581 600.713 164.591 601.725C165.703 602.939 166.207 604.455 166.206 606.477C166.205 608.499 165.193 610.52 163.069 612.339L155.281 619.513C155.078 620.624 154.876 620.725 154.371 620.725Z" fill="white"/>
</g>
<g opacity="0.7">
<path opacity="0.7" d="M86.3017 491.995L61.9393 489.253C59.21 488.847 56.6815 490.867 56.3767 493.799L54.9542 507.143C54.5484 509.872 56.5689 512.4 59.5005 512.705L66.6779 513.417L70.618 518.271C70.82 518.676 71.3254 518.676 71.7299 518.474L76.5846 514.534L83.7619 515.246C86.4912 515.651 89.0197 513.631 89.3245 510.699L90.747 497.356C91.0516 494.929 89.031 492.401 86.3017 491.995Z" fill="#FF0B0B"/>
<path opacity="0.7" d="M71.9362 510.791C71.6329 510.69 71.3297 510.589 71.2287 510.386L66.5814 504.622L66.4805 504.419C66.3795 504.217 66.2785 504.015 66.1775 503.813C65.9755 503.408 65.8745 503.206 65.6726 502.801C65.4706 502.397 65.3696 502.195 65.3699 501.689C65.3701 501.184 65.1682 500.779 65.2694 500.476C65.3712 499.162 65.8772 498.151 66.7875 497.444C67.6977 496.737 68.8099 496.434 70.1241 496.536C70.4273 496.637 70.9328 496.637 71.337 496.941C71.6402 497.042 72.0444 497.346 72.4487 497.649C72.8529 497.953 72.9539 498.155 73.2571 498.256C73.3581 498.458 73.3581 498.458 73.6613 498.56C73.8635 498.459 73.8635 498.459 74.0658 498.358C74.268 498.257 74.6725 498.055 75.077 497.853C75.4815 497.651 75.886 497.449 76.1892 497.55C76.5937 497.348 77.0992 497.348 77.4024 497.45C78.7166 497.551 79.7273 498.057 80.4344 498.968C81.1416 499.878 81.4443 500.99 81.3425 502.304C81.2407 503.618 80.4312 505.033 78.813 506.347L73.0481 510.994C72.3407 510.589 72.1384 510.69 71.9362 510.791Z" fill="white"/>
</g>
<path d="M1438.68 452.119L1482.1 448.612C1487.11 448.176 1491.4 451.93 1491.83 456.932L1493.74 480.563C1494.18 485.565 1490.42 489.856 1485.42 490.291L1472.51 491.483L1465.23 499.922C1464.71 500.567 1463.77 500.553 1463.12 500.037L1454.69 492.749L1441.78 493.94C1436.78 494.376 1432.49 490.622 1432.05 485.62L1430.14 461.989C1430.29 456.923 1433.9 452.413 1438.68 452.119Z" fill="#FF0B0B"/>
<path d="M1435.89 313.137L1468 310.409C1471.63 310.244 1474.85 312.824 1475.01 316.447L1476.36 333.915C1476.52 337.537 1473.94 340.759 1470.32 340.924L1460.89 341.731L1455.59 347.955C1455.3 348.457 1454.57 348.302 1454.07 348.005L1447.85 342.703L1438.42 343.51C1434.8 343.676 1431.58 341.096 1431.41 337.473L1430.07 320.005C1429.47 316.665 1432.05 313.444 1435.89 313.137Z" fill="#FF0B0B"/>
<path d="M1372.62 398.467L1415.9 369.254C1420.94 365.996 1427.66 367.25 1430.78 372.073L1446.66 395.686C1449.92 400.728 1448.66 407.444 1443.84 410.561L1431.05 419.139L1428.61 432.21C1428.38 433.292 1427.51 433.859 1426.64 433.485L1413.57 431.054L1400.78 439.632C1395.74 442.891 1389.02 441.636 1385.9 436.813L1370.02 413.2C1366.32 408.441 1367.58 401.726 1372.62 398.467Z" fill="#FF0B0B"/>
<path fill-rule="evenodd" clip-rule="evenodd" d="M1411.27 406.287C1415.69 403.451 1416.97 397.572 1414.13 393.155C1411.3 388.739 1405.42 387.458 1401 390.295C1396.59 393.131 1395.31 399.01 1398.14 403.426C1400.98 407.842 1406.86 409.123 1411.27 406.287Z" fill="white"/>
<path fill-rule="evenodd" clip-rule="evenodd" d="M1403.7 425.268L1402.23 422.984C1400.21 419.829 1400.78 415.849 1403.51 414.094L1421.6 402.477C1424.33 400.722 1428.2 401.863 1430.22 405.01L1431.69 407.295L1403.7 425.268Z" fill="white"/>
<g opacity="0.7">
<path opacity="0.7" d="M1364.17 351.719L1382.41 331.851C1384.39 329.634 1388.01 329.469 1390.23 331.455L1400.95 341.31C1403.17 343.297 1403.33 346.919 1401.35 349.136L1395.9 355.14L1396.31 362.024C1396.37 362.604 1395.94 362.888 1395.36 362.952L1388.47 363.36L1383.03 369.365C1381.04 371.581 1377.42 371.746 1375.2 369.76L1364.48 359.905C1361.98 357.48 1361.96 354.076 1364.17 351.719Z" fill="#FF0B0B"/>
<g opacity="0.7">
<path fill-rule="evenodd" clip-rule="evenodd" d="M1384.26 351.994C1386.27 349.98 1386.26 346.721 1384.24 344.715C1382.23 342.71 1378.97 342.717 1376.97 344.732C1374.96 346.746 1374.97 350.005 1376.98 352.011C1379 354.016 1382.26 354.009 1384.26 351.994Z" fill="white"/>
<path fill-rule="evenodd" clip-rule="evenodd" d="M1382.47 362.917L1381.42 361.879C1379.98 360.447 1379.82 358.275 1381.07 357.028L1389.28 348.776C1390.52 347.529 1392.7 347.683 1394.13 349.112L1395.18 350.15L1382.47 362.917Z" fill="white"/>
</g>
</g>
<path d="M1395.55 253.118L1361.42 280.144C1357.54 283.275 1356.88 288.985 1360.01 292.867L1374.66 311.684C1377.79 315.566 1383.5 316.227 1387.38 313.096L1397.41 305.058L1408.47 306.302C1409.19 306.457 1410.07 305.89 1410.09 304.949L1411.33 293.889L1421.36 285.851C1425.25 282.72 1425.91 277.01 1422.78 273.128L1408.13 254.311C1405.28 250.868 1399.57 250.207 1395.55 253.118Z" fill="#FF0B0B"/>
<path fill-rule="evenodd" clip-rule="evenodd" d="M1393.91 285.15C1397.19 282.7 1397.86 278.055 1395.41 274.775C1392.96 271.496 1388.32 270.823 1385.04 273.273C1381.76 275.723 1381.09 280.368 1383.54 283.647C1385.99 286.927 1390.63 287.6 1393.91 285.15Z" fill="white"/>
<path fill-rule="evenodd" clip-rule="evenodd" d="M1389.06 300.335L1387.8 298.639C1386.05 296.296 1386.27 293.168 1388.3 291.651L1401.74 281.617C1403.77 280.101 1406.83 280.775 1408.58 283.113L1409.85 284.81L1389.06 300.335Z" fill="white"/>
<path d="M1303.05 149.42L1277.64 169.258C1274.71 171.46 1274.36 175.727 1276.56 178.655L1287.37 192.493C1289.58 195.421 1293.84 195.771 1296.77 193.569L1304.24 187.81L1312.33 188.795C1312.91 188.731 1313.35 188.447 1313.51 187.725L1314.49 179.63L1321.96 173.872C1324.89 171.669 1325.24 167.403 1323.03 164.475L1312.23 150.637C1310.02 147.709 1305.97 147.217 1303.05 149.42Z" fill="#FF0B0B"/>
<path fill-rule="evenodd" clip-rule="evenodd" d="M1301.47 173.126C1304.11 171.175 1304.67 167.455 1302.72 164.817C1300.77 162.179 1297.05 161.623 1294.41 163.574C1291.77 165.525 1291.21 169.245 1293.17 171.883C1295.12 174.521 1298.84 175.077 1301.47 173.126Z" fill="white"/>
<path fill-rule="evenodd" clip-rule="evenodd" d="M1297.53 185.279L1296.52 183.914C1295.13 182.03 1295.32 179.524 1296.96 178.316L1307.76 170.324C1309.39 169.116 1311.85 169.668 1313.24 171.548L1314.25 172.913L1297.53 185.279Z" fill="white"/>
<path d="M1407.47 168.648L1355.87 176.818C1349.99 177.82 1346.01 183.193 1347.01 189.072L1351.53 217.23C1352.53 223.109 1357.91 227.095 1363.79 226.093L1379.02 223.704L1389.77 231.677C1390.42 232.193 1391.58 232.064 1392.31 231.279L1400.28 220.532L1415.52 218.143C1421.4 217.14 1425.39 211.767 1424.39 205.888L1419.86 177.731C1418.86 171.852 1413.35 167.646 1407.47 168.648Z" fill="#FF0B0B"/>
<path fill-rule="evenodd" clip-rule="evenodd" d="M1387.4 199.016C1392.35 198.412 1395.87 193.914 1395.26 188.97C1394.66 184.026 1390.16 180.507 1385.22 181.111C1380.27 181.715 1376.75 186.213 1377.36 191.157C1377.96 196.101 1382.46 199.62 1387.4 199.016Z" fill="white"/>
<path fill-rule="evenodd" clip-rule="evenodd" d="M1373.1 212.12L1372.79 209.562C1372.36 206.03 1374.49 202.865 1377.55 202.491L1397.8 200.017C1400.86 199.643 1403.69 202.21 1404.12 205.734L1404.44 208.292L1373.1 212.12Z" fill="white"/>
<g opacity="0.7">
<path opacity="0.7" d="M1305.85 226.859L1277.95 253.902C1274.65 256.968 1274.73 261.893 1277.79 265.195L1292.49 280.247C1295.56 283.549 1300.48 283.475 1303.79 280.408L1311.94 272.343L1321.93 272.413C1322.65 272.568 1323.17 271.924 1323.32 271.202L1323.39 261.211L1331.54 253.146C1334.84 250.08 1334.77 245.155 1331.7 241.853L1317 226.801C1314.22 223.938 1308.94 223.935 1305.85 226.859Z" fill="#FF0B0B"/>
<g opacity="0.7">
<path fill-rule="evenodd" clip-rule="evenodd" d="M1307.09 255.209C1309.84 252.546 1309.91 248.162 1307.24 245.417C1304.58 242.671 1300.2 242.604 1297.45 245.267C1294.7 247.93 1294.64 252.314 1297.3 255.06C1299.96 257.805 1304.35 257.872 1307.09 255.209Z" fill="white"/>
<path fill-rule="evenodd" clip-rule="evenodd" d="M1304.42 269.861L1303.04 268.44C1301.14 266.479 1300.98 263.553 1302.68 261.905L1313.92 250.999C1315.62 249.35 1318.54 249.608 1320.44 251.565L1321.82 252.985L1304.42 269.861Z" fill="white"/>
</g>
</g>
<g opacity="0.7">
<path opacity="0.7" d="M1381.9 128.607L1355 126.413C1352.03 126.153 1349.25 128.575 1348.99 131.54L1347.91 146.222C1347.65 149.187 1350.07 151.973 1353.04 152.233L1360.85 152.779L1365.41 157.912C1365.69 158.35 1366.27 158.286 1366.71 158.003L1371.85 153.442L1379.66 153.988C1382.62 154.248 1385.41 151.826 1385.67 148.861L1386.75 134.178C1387.29 131.652 1384.87 128.866 1381.9 128.607Z" fill="#FF0B0B"/>
<g opacity="0.7">
<path fill-rule="evenodd" clip-rule="evenodd" d="M1367.77 141.846C1370.41 141.969 1372.65 139.929 1372.78 137.289C1372.9 134.649 1370.86 132.409 1368.22 132.286C1365.58 132.163 1363.34 134.203 1363.22 136.843C1363.09 139.483 1365.13 141.723 1367.77 141.846Z" fill="white"/>
<path fill-rule="evenodd" clip-rule="evenodd" d="M1359.13 147.431L1359.19 146.066C1359.28 144.18 1360.68 142.713 1362.31 142.789L1373.12 143.293C1374.76 143.369 1376.01 144.964 1375.92 146.846L1375.86 148.211L1359.13 147.431Z" fill="white"/>
</g>
</g>
</g>
<defs>
<linearGradient id="paint0_linear_352_2940" x1="720" y1="0" x2="720" y2="832.571" gradientUnits="userSpaceOnUse">
<stop stop-color="#ED017F"/>
<stop offset="1" stop-color="#7F33B5"/>
</linearGradient>
<linearGradient id="paint1_linear_352_2940" x1="720" y1="0" x2="720" y2="832.571" gradientUnits="userSpaceOnUse">
<stop stop-color="#ED017F"/>
<stop offset="1" stop-color="#7F33B5"/>
</linearGradient>
<linearGradient id="paint2_linear_352_2940" x1="720" y1="0" x2="720" y2="832.571" gradientUnits="userSpaceOnUse">
<stop stop-color="#ED017F"/>
<stop offset="1" stop-color="#7F33B5"/>
</linearGradient>
<linearGradient id="paint3_linear_352_2940" x1="720" y1="0" x2="720" y2="832.571" gradientUnits="userSpaceOnUse">
<stop stop-color="#ED017F"/>
<stop offset="1" stop-color="#7F33B5"/>
</linearGradient>
</defs>
</svg>
