<svg width="283" height="283" viewBox="0 0 283 283" fill="none" xmlns="http://www.w3.org/2000/svg">
<circle cx="11.5019" cy="11.5019" r="11.5019" fill="white" fill-opacity="0.07"/>
<circle cx="11.5019" cy="63.4052" r="11.5019" fill="white" fill-opacity="0.07"/>
<circle cx="11.5019" cy="115.308" r="11.5019" fill="white" fill-opacity="0.07"/>
<circle cx="11.5019" cy="167.212" r="11.5019" fill="white" fill-opacity="0.07"/>
<circle cx="11.5019" cy="219.115" r="11.5019" fill="white" fill-opacity="0.07"/>
<circle cx="11.5019" cy="271.018" r="11.5019" fill="white" fill-opacity="0.07"/>
<circle cx="63.405" cy="11.5019" r="11.5019" fill="white" fill-opacity="0.07"/>
<circle cx="63.405" cy="63.4052" r="11.5019" fill="white" fill-opacity="0.07"/>
<circle cx="63.405" cy="115.308" r="11.5019" fill="white" fill-opacity="0.07"/>
<circle cx="63.405" cy="167.212" r="11.5019" fill="white" fill-opacity="0.07"/>
<circle cx="63.405" cy="219.115" r="11.5019" fill="white" fill-opacity="0.07"/>
<circle cx="63.405" cy="271.018" r="11.5019" fill="white" fill-opacity="0.07"/>
<circle cx="115.308" cy="11.5019" r="11.5019" fill="white" fill-opacity="0.07"/>
<circle cx="115.308" cy="63.4052" r="11.5019" fill="white" fill-opacity="0.07"/>
<circle cx="115.308" cy="115.308" r="11.5019" fill="white" fill-opacity="0.07"/>
<circle cx="115.308" cy="167.212" r="11.5019" fill="white" fill-opacity="0.07"/>
<circle cx="115.308" cy="219.115" r="11.5019" fill="white" fill-opacity="0.07"/>
<circle cx="115.308" cy="271.018" r="11.5019" fill="white" fill-opacity="0.07"/>
<circle cx="167.211" cy="11.5019" r="11.5019" fill="white" fill-opacity="0.07"/>
<circle cx="167.211" cy="63.4052" r="11.5019" fill="white" fill-opacity="0.07"/>
<circle cx="167.211" cy="115.308" r="11.5019" fill="white" fill-opacity="0.07"/>
<circle cx="167.211" cy="167.212" r="11.5019" fill="white" fill-opacity="0.07"/>
<circle cx="167.211" cy="219.115" r="11.5019" fill="white" fill-opacity="0.07"/>
<circle cx="167.211" cy="271.018" r="11.5019" fill="white" fill-opacity="0.07"/>
<circle cx="219.114" cy="11.5019" r="11.5019" fill="white" fill-opacity="0.07"/>
<circle cx="219.114" cy="63.4052" r="11.5019" fill="white" fill-opacity="0.07"/>
<circle cx="219.114" cy="115.308" r="11.5019" fill="white" fill-opacity="0.07"/>
<circle cx="219.114" cy="167.212" r="11.5019" fill="white" fill-opacity="0.07"/>
<circle cx="219.114" cy="219.115" r="11.5019" fill="white" fill-opacity="0.07"/>
<circle cx="219.114" cy="271.018" r="11.5019" fill="white" fill-opacity="0.07"/>
<circle cx="271.018" cy="11.5019" r="11.5019" fill="white" fill-opacity="0.07"/>
<circle cx="271.018" cy="63.4052" r="11.5019" fill="white" fill-opacity="0.07"/>
<circle cx="271.018" cy="115.308" r="11.5019" fill="white" fill-opacity="0.07"/>
<circle cx="271.018" cy="167.212" r="11.5019" fill="white" fill-opacity="0.07"/>
<circle cx="271.018" cy="219.115" r="11.5019" fill="white" fill-opacity="0.07"/>
<circle cx="271.018" cy="271.018" r="11.5019" fill="white" fill-opacity="0.07"/>
</svg>
