<svg width="249" height="249" viewBox="0 0 249 249" fill="none" xmlns="http://www.w3.org/2000/svg">
<ellipse cx="98.7829" cy="10.1152" rx="7.32815" ry="7.32816" transform="rotate(32.4295 98.7829 10.1152)" fill="#FA98CC" fill-opacity="0.2"/>
<ellipse cx="81.0492" cy="38.027" rx="7.32815" ry="7.32815" transform="rotate(32.4295 81.0492 38.027)" fill="#FA98CC" fill-opacity="0.2"/>
<ellipse cx="63.3158" cy="65.9389" rx="7.32815" ry="7.32815" transform="rotate(32.4295 63.3158 65.9389)" fill="#FA98CC" fill-opacity="0.2"/>
<ellipse cx="45.5824" cy="93.8505" rx="7.32815" ry="7.32815" transform="rotate(32.4295 45.5824 93.8505)" fill="#FA98CC" fill-opacity="0.2"/>
<ellipse cx="27.8488" cy="121.762" rx="7.32815" ry="7.32817" transform="rotate(32.4295 27.8488 121.762)" fill="#FA98CC" fill-opacity="0.2"/>
<ellipse cx="10.1152" cy="149.674" rx="7.32815" ry="7.32817" transform="rotate(32.4295 10.1152 149.674)" fill="#FA98CC" fill-opacity="0.2"/>
<ellipse cx="126.695" cy="27.8488" rx="7.32815" ry="7.32816" transform="rotate(32.4295 126.695 27.8488)" fill="#FA98CC" fill-opacity="0.2"/>
<circle cx="108.961" cy="55.7607" r="7.32815" transform="rotate(32.4295 108.961 55.7607)" fill="#FA98CC" fill-opacity="0.2"/>
<circle cx="91.2277" cy="83.6723" r="7.32815" transform="rotate(32.4295 91.2277 83.6723)" fill="#FA98CC" fill-opacity="0.2"/>
<circle cx="73.4941" cy="111.584" r="7.32815" transform="rotate(32.4295 73.4941 111.584)" fill="#FA98CC" fill-opacity="0.2"/>
<ellipse cx="55.7607" cy="139.496" rx="7.32815" ry="7.32817" transform="rotate(32.4295 55.7607 139.496)" fill="#FA98CC" fill-opacity="0.2"/>
<ellipse cx="38.027" cy="167.408" rx="7.32815" ry="7.32817" transform="rotate(32.4295 38.027 167.408)" fill="#FA98CC" fill-opacity="0.2"/>
<ellipse cx="154.606" cy="45.5819" rx="7.32815" ry="7.32816" transform="rotate(32.4295 154.606 45.5819)" fill="#FA98CC" fill-opacity="0.2"/>
<ellipse cx="136.873" cy="73.4941" rx="7.32815" ry="7.32815" transform="rotate(32.4295 136.873 73.4941)" fill="#FA98CC" fill-opacity="0.2"/>
<ellipse cx="119.139" cy="101.406" rx="7.32815" ry="7.32815" transform="rotate(32.4295 119.139 101.406)" fill="#FA98CC" fill-opacity="0.2"/>
<ellipse cx="101.406" cy="129.318" rx="7.32815" ry="7.32815" transform="rotate(32.4295 101.406 129.318)" fill="#FA98CC" fill-opacity="0.2"/>
<ellipse cx="83.6723" cy="157.229" rx="7.32815" ry="7.32817" transform="rotate(32.4295 83.6723 157.229)" fill="#FA98CC" fill-opacity="0.2"/>
<ellipse cx="65.9386" cy="185.141" rx="7.32815" ry="7.32817" transform="rotate(32.4295 65.9386 185.141)" fill="#FA98CC" fill-opacity="0.2"/>
<ellipse cx="182.518" cy="63.3158" rx="7.32816" ry="7.32816" transform="rotate(32.4295 182.518 63.3158)" fill="#FA98CC" fill-opacity="0.2"/>
<ellipse cx="164.784" cy="91.2275" rx="7.32816" ry="7.32815" transform="rotate(32.4295 164.784 91.2275)" fill="#FA98CC" fill-opacity="0.2"/>
<ellipse cx="147.051" cy="119.139" rx="7.32816" ry="7.32815" transform="rotate(32.4295 147.051 119.139)" fill="#FA98CC" fill-opacity="0.2"/>
<ellipse cx="129.318" cy="147.051" rx="7.32816" ry="7.32815" transform="rotate(32.4295 129.318 147.051)" fill="#FA98CC" fill-opacity="0.2"/>
<ellipse cx="111.584" cy="174.963" rx="7.32816" ry="7.32817" transform="rotate(32.4295 111.584 174.963)" fill="#FA98CC" fill-opacity="0.2"/>
<ellipse cx="93.8505" cy="202.874" rx="7.32816" ry="7.32817" transform="rotate(32.4295 93.8505 202.874)" fill="#FA98CC" fill-opacity="0.2"/>
<ellipse cx="210.43" cy="81.0492" rx="7.32815" ry="7.32816" transform="rotate(32.4295 210.43 81.0492)" fill="#FA98CC" fill-opacity="0.2"/>
<ellipse cx="192.696" cy="108.961" rx="7.32815" ry="7.32815" transform="rotate(32.4295 192.696 108.961)" fill="#FA98CC" fill-opacity="0.2"/>
<ellipse cx="174.963" cy="136.872" rx="7.32815" ry="7.32815" transform="rotate(32.4295 174.963 136.872)" fill="#FA98CC" fill-opacity="0.2"/>
<ellipse cx="157.229" cy="164.785" rx="7.32815" ry="7.32815" transform="rotate(32.4295 157.229 164.785)" fill="#FA98CC" fill-opacity="0.2"/>
<ellipse cx="139.496" cy="192.696" rx="7.32815" ry="7.32817" transform="rotate(32.4295 139.496 192.696)" fill="#FA98CC" fill-opacity="0.2"/>
<ellipse cx="121.762" cy="220.608" rx="7.32815" ry="7.32817" transform="rotate(32.4295 121.762 220.608)" fill="#FA98CC" fill-opacity="0.2"/>
<ellipse cx="238.341" cy="98.7826" rx="7.32816" ry="7.32816" transform="rotate(32.4295 238.341 98.7826)" fill="#FA98CC" fill-opacity="0.2"/>
<ellipse cx="220.608" cy="126.694" rx="7.32816" ry="7.32815" transform="rotate(32.4295 220.608 126.694)" fill="#FA98CC" fill-opacity="0.2"/>
<ellipse cx="202.874" cy="154.606" rx="7.32816" ry="7.32815" transform="rotate(32.4295 202.874 154.606)" fill="#FA98CC" fill-opacity="0.2"/>
<ellipse cx="185.141" cy="182.518" rx="7.32816" ry="7.32815" transform="rotate(32.4295 185.141 182.518)" fill="#FA98CC" fill-opacity="0.2"/>
<ellipse cx="167.407" cy="210.43" rx="7.32816" ry="7.32817" transform="rotate(32.4295 167.407 210.43)" fill="#FA98CC" fill-opacity="0.2"/>
<ellipse cx="149.674" cy="238.342" rx="7.32816" ry="7.32817" transform="rotate(32.4295 149.674 238.342)" fill="#FA98CC" fill-opacity="0.2"/>
</svg>
