<svg width="19" height="19" viewBox="0 0 19 19" fill="none" xmlns="http://www.w3.org/2000/svg">
<path d="M3.67363 0.25C1.77709 0.25 0.25 1.77709 0.25 3.67363V15.5764C0.25 17.4729 1.77709 19 3.67363 19H10.1248V11.6699H8.18653V9.03086H10.1248V6.77617C10.1248 5.00477 11.27 3.37832 13.9082 3.37832C14.9763 3.37832 15.7662 3.48087 15.7662 3.48087L15.7041 5.94532C15.7041 5.94532 14.8985 5.93771 14.0195 5.93771C13.0682 5.93771 12.9156 6.37605 12.9156 7.10374V9.03088H15.7797L15.6549 11.6699H12.9156V19H15.5763C17.4729 19 19 17.4729 19 15.5764V3.67365C19 1.77711 17.4729 0.250019 15.5763 0.250019H3.67361L3.67363 0.25Z" fill="white"/>
</svg>
