<svg width="258" height="373" viewBox="0 0 258 373" fill="none" xmlns="http://www.w3.org/2000/svg">
<path d="M184.027 281.853L162.784 307.115C160.457 310.046 160.758 314.191 163.487 316.618L177.128 328.252C180.059 330.578 184.204 330.277 186.632 327.549L192.802 320.172L201.295 319.469C201.8 319.469 202.306 318.964 202.205 318.257L201.502 309.764L207.673 302.388C209.999 299.457 209.698 295.312 206.97 292.884L193.328 281.251C190.701 278.52 186.354 278.922 184.027 281.853Z" fill="#FF0B0B"/>
<path d="M194.222 311.883C194.121 312.186 193.716 312.388 193.413 312.287L183.505 313.192C183.505 313.192 183.303 313.293 183 313.191C182.798 313.292 182.494 313.191 181.989 313.191C181.483 313.191 180.978 313.19 180.675 313.089C180.169 313.089 179.563 312.886 179.159 312.583C178.552 312.38 178.148 312.077 177.643 311.571C176.329 310.458 175.42 309.144 175.32 307.425C175.118 306.01 175.625 304.493 176.94 303.079C177.243 302.675 177.547 302.27 178.153 301.967C178.558 301.765 179.164 301.462 179.569 301.26C179.973 301.058 180.479 301.059 180.883 300.857C181.086 300.756 181.389 300.857 181.591 300.756C181.49 300.554 181.591 300.251 181.49 300.048C181.491 299.543 181.592 299.24 181.592 298.734C181.592 298.229 181.795 297.622 181.998 297.016C182.2 296.409 182.504 296.005 182.807 295.601C183.92 294.287 185.234 293.378 186.751 293.379C188.166 293.177 189.682 293.684 191.097 294.999C192.411 296.111 193.421 298.134 193.722 300.763L194.526 310.468C194.425 311.277 194.323 311.58 194.222 311.883Z" fill="white"/>
<path d="M99.7483 219.331L84.1699 237.722C82.4501 239.844 82.7517 242.978 84.6715 244.799L94.7764 253.397C96.8985 255.117 100.033 254.815 101.853 252.896L106.406 247.338L112.472 246.836C112.977 246.836 113.28 246.432 113.281 245.926L112.779 239.86L117.331 234.302C119.05 232.18 118.749 229.046 116.829 227.226L106.724 218.627C104.703 217.11 101.569 217.411 99.7483 219.331Z" fill="#FF0B0B"/>
<path d="M107.318 241.576C107.116 241.677 106.914 241.778 106.712 241.879L99.4325 242.482C99.4325 242.482 99.2303 242.583 99.1293 242.38C98.9271 242.481 98.6239 242.38 98.3206 242.279C98.0174 242.178 97.5119 242.177 97.2087 242.076C96.9055 241.975 96.4 241.975 95.9958 241.671C95.5915 241.368 95.2883 241.266 94.8841 240.963C93.8737 239.951 93.1665 239.041 93.1671 238.03C93.0666 236.817 93.3704 235.907 94.3819 234.897C94.6854 234.493 94.8876 234.392 95.2921 234.19C95.6966 233.988 96.1011 233.786 96.3033 233.685C96.7078 233.483 97.011 233.584 97.2133 233.483C97.4155 233.382 97.4155 233.382 97.7187 233.483C97.6178 233.281 97.82 233.18 97.719 232.978C97.8203 232.675 97.7193 232.472 97.7196 231.967C97.7198 231.461 97.8211 231.158 97.9223 230.855C98.0236 230.552 98.3271 230.147 98.4283 229.844C99.2376 228.935 100.35 228.127 101.361 228.127C102.574 228.027 103.585 228.533 104.494 229.342C105.505 230.353 106.111 231.567 106.312 233.488L106.914 240.767C107.521 240.97 107.42 241.273 107.318 241.576Z" fill="white"/>
<path d="M179.917 217.453L143.112 231.283C138.865 232.899 136.84 237.447 138.456 241.694L145.926 261.714C147.541 265.961 152.089 267.985 156.336 266.37L167.156 262.231L176.252 266.28C176.858 266.482 177.768 266.281 177.971 265.674L182.02 256.578L192.839 252.439C197.086 250.823 199.11 246.275 197.495 242.028L190.024 222.008C188.813 218.064 183.962 215.939 179.917 217.453Z" fill="#FF0B0B"/>
<path d="M173.023 254.753C172.619 254.955 172.316 254.854 171.709 254.651L160.996 249.894C160.996 249.894 160.692 249.793 160.389 249.692C160.086 249.59 159.783 249.489 159.277 248.983C158.873 248.68 158.267 248.477 157.762 247.972C157.357 247.668 156.852 247.162 156.347 246.657C155.842 246.151 155.539 245.544 155.236 244.937C154.428 242.814 154.53 240.994 155.239 239.377C155.947 237.76 157.363 236.548 159.487 235.74C160.093 235.437 160.801 235.336 161.307 235.337C162.014 235.236 162.621 235.439 163.227 235.641C163.834 235.844 164.339 235.844 164.743 236.147C165.047 236.249 165.35 236.35 165.35 236.35C165.451 236.047 165.653 235.946 165.755 235.642C166.058 235.238 166.362 234.834 166.564 234.227C167.07 233.722 167.373 233.318 167.879 232.813C168.385 232.308 168.992 232.005 169.598 231.702C171.722 230.894 173.541 230.996 175.159 231.705C176.776 232.413 177.988 233.829 178.796 235.953C179.603 238.076 179.299 240.502 178.185 243.332L173.428 254.046C173.63 254.45 173.428 254.551 173.023 254.753Z" fill="white"/>
<g opacity="0.7">
<path opacity="0.7" d="M113.77 276.255L97.2785 300.408C95.3563 303.136 96.2641 306.978 98.8916 308.698L112.029 317.804C114.758 319.726 118.6 318.818 120.32 316.191L125.075 309.016L132.456 307.604C132.961 307.605 133.366 306.897 133.164 306.493L131.753 299.112L136.508 291.937C138.43 289.208 137.522 285.366 134.895 283.646L121.757 274.541C119.332 272.72 115.389 273.425 113.77 276.255Z" fill="#FF0B0B"/>
<path opacity="0.7" d="M125.281 301.838C125.18 302.141 124.775 302.343 124.472 302.242L115.979 303.956C115.979 303.956 115.777 304.057 115.575 304.158C115.372 304.259 115.069 304.158 114.665 304.36C114.159 304.359 113.856 304.258 113.35 304.258C112.845 304.258 112.542 304.156 111.935 303.954C111.329 303.751 110.925 303.448 110.52 303.144C109.105 302.335 108.297 301.222 108.096 299.807C107.894 298.391 108.299 297.179 109.109 295.764C109.412 295.359 109.716 294.955 110.12 294.753C110.525 294.551 110.828 294.147 111.536 294.046C111.941 293.844 112.345 293.642 112.648 293.744C112.851 293.643 113.053 293.542 113.154 293.744C113.053 293.542 113.154 293.238 113.154 293.238C113.255 292.935 113.053 292.531 113.054 292.025C113.054 291.52 113.054 291.014 113.358 290.61C113.56 290.004 113.661 289.7 113.965 289.296C114.774 287.881 115.887 287.073 117.302 286.872C118.718 286.67 119.931 287.075 121.346 287.885C122.761 288.694 123.669 290.515 123.972 292.638L125.483 301.232C125.483 301.232 125.382 301.535 125.281 301.838Z" fill="white"/>
</g>
<g opacity="0.7">
<path opacity="0.7" d="M154.859 192.065L134.639 194.581C132.314 194.985 130.796 197.006 130.896 199.23L132.306 210.149C132.709 212.474 134.73 213.992 136.954 213.892L142.919 213.187L147.062 216.425C147.365 216.526 147.871 216.526 147.972 216.223L151.209 212.08L157.174 211.375C159.5 210.972 161.017 208.951 160.917 206.727L159.508 195.808C159.105 193.483 156.982 191.763 154.859 192.065Z" fill="#FF0B0B"/>
<path opacity="0.7" d="M146.863 209.954C146.661 210.055 146.358 209.954 146.257 209.752L141.406 206.11C141.406 206.11 141.305 205.908 141.103 206.009C141.103 206.009 140.8 205.907 140.598 205.503C140.497 205.301 140.092 204.997 139.991 204.795C139.891 204.593 139.689 204.188 139.588 203.986C139.386 203.581 139.285 203.379 139.285 202.874C139.184 201.661 139.286 200.852 139.893 200.043C140.5 199.235 141.309 198.831 142.522 198.731C142.724 198.63 143.23 198.63 143.533 198.731C143.836 198.832 144.139 198.934 144.443 199.035C144.746 199.136 145.049 199.237 145.15 199.44L145.453 199.541C145.656 199.44 145.656 199.44 145.757 199.137C145.959 199.036 146.06 198.732 146.465 198.53C146.667 198.43 146.971 198.025 147.173 197.924C147.577 197.722 147.78 197.621 148.083 197.723C149.296 197.622 150.105 197.724 150.913 198.331C151.722 198.938 152.126 199.747 152.226 200.96C152.326 202.173 151.921 203.386 151.011 204.599L147.369 209.449C147.268 209.752 147.065 209.853 146.863 209.954Z" fill="white"/>
</g>
<path d="M95.0362 145.63L63.0778 169.168C59.3359 171.795 58.6254 176.95 61.2519 180.692L73.9806 198.087C76.607 201.829 81.7625 202.54 85.5044 199.913L94.9099 192.943L105.019 194.464C105.827 194.566 106.333 194.061 106.536 193.454L108.057 183.346L117.463 176.375C121.205 173.749 121.915 168.593 119.289 164.851L106.56 147.456C103.934 143.714 98.7781 143.004 95.0362 145.63Z" fill="#FF0B0B"/>
<path d="M98.5546 183.543C98.1501 183.745 97.7456 183.947 97.4424 183.845L85.7163 182.121C85.7163 182.121 85.4131 182.019 85.2108 182.12C84.9076 182.019 84.6044 181.918 83.9979 181.715C83.3914 181.513 82.785 181.31 82.3808 181.007C81.7743 180.804 81.3701 180.501 80.6626 180.096C79.9552 179.691 79.45 179.185 79.147 178.579C77.7327 176.758 77.3293 174.938 77.5323 173.321C77.8366 171.4 78.8484 169.884 80.5676 168.773C81.1743 168.47 81.7811 168.167 82.3878 167.864C82.9945 167.561 83.7022 167.461 84.3087 167.663C85.0164 167.562 85.5219 167.563 86.0274 167.563C86.3306 167.664 86.5328 167.563 86.8361 167.665C86.9373 167.361 86.8363 167.159 86.9376 166.856C86.9379 166.35 87.2414 165.946 87.4439 165.34C87.6464 164.733 88.0511 164.026 88.3546 163.622C88.8604 163.116 89.1639 162.712 89.6696 162.207C91.4901 160.793 93.31 160.389 94.9274 160.592C96.848 160.897 98.3639 161.908 99.576 163.83C100.99 165.65 101.394 167.976 100.987 171.21L99.2626 182.936C99.0603 183.037 98.7568 183.442 98.5546 183.543Z" fill="white"/>
<path d="M14.212 48.5364L-9.45339 65.9121C-12.0828 67.7304 -12.6914 71.5717 -10.7722 74.4033L-1.37715 87.1463C0.441152 89.7757 4.28242 90.3843 7.1141 88.465L14.1934 83.4141L21.5727 84.5301C22.0782 84.5303 22.685 84.2274 22.6852 83.7219L23.8012 76.3426L30.8805 71.2916C33.51 69.4733 34.1186 65.6321 32.1993 62.8004L22.5011 49.9562C20.5818 47.1245 16.7405 46.5159 14.212 48.5364Z" fill="#FF0B0B"/>
<path d="M16.6233 76.6422C16.4211 76.7432 16.0166 76.9452 15.7134 76.8439L7.01986 75.6261C7.01986 75.6261 6.81762 75.7271 6.71663 75.5249C6.51439 75.6258 6.21116 75.5246 5.80694 75.2211C5.50371 75.1198 4.89725 74.9173 4.59402 74.8161C4.29079 74.7148 3.88658 74.4113 3.28012 74.2088C2.8759 73.9053 2.47168 73.6018 2.16872 72.9951C1.25957 71.6803 0.855897 70.3659 0.957693 69.0517C1.05949 67.7375 1.96999 66.5249 3.28471 65.6157C3.68919 65.4138 4.09368 65.2118 4.49817 65.0098C4.90265 64.8079 5.40812 64.8081 5.91359 64.8084C6.41907 64.8087 6.7223 64.9099 7.12679 64.7079C7.32903 64.607 7.43002 64.8092 7.63226 64.7082C7.73352 64.405 7.73351 64.405 7.83477 64.1017C7.93603 63.7985 7.9363 63.2931 8.2398 62.8888C8.5433 62.4846 8.54357 61.9791 8.84707 61.5749C9.15057 61.1707 9.45407 60.7665 9.85855 60.5645C11.1733 59.6554 12.4877 59.2517 13.8019 59.3535C15.1161 59.4553 16.3287 60.3658 17.2379 61.6805C18.147 62.9952 18.5504 64.8151 18.2459 67.2412L17.0281 75.9347C16.9268 76.238 16.7246 76.339 16.6233 76.6422Z" fill="white"/>
<path d="M108.422 69.2097L61.3083 75.0481C56.051 75.6518 52.2068 80.6034 52.8105 85.8607L56.0319 111.54C56.6356 116.798 61.5872 120.642 66.8445 120.038L80.8975 118.327L90.3965 125.712C91.1039 126.117 92.1149 126.117 92.5196 125.41L99.9046 115.911L113.958 114.2C119.215 113.596 123.059 108.644 122.455 103.387L119.234 77.7075C118.833 72.3492 113.881 68.505 108.422 69.2097Z" fill="#FF0B0B"/>
<path d="M89.7977 110.851C89.2922 110.851 88.7868 110.85 88.3825 110.547L77.0645 102.049C77.0645 102.049 76.7612 101.948 76.5593 101.543C76.256 101.442 76.0541 101.037 75.5489 100.532C75.0437 100.026 74.5384 99.5202 74.2355 98.9135C73.7303 98.4077 73.3263 97.5988 73.0234 96.992C72.6194 96.1831 72.4177 95.2731 72.317 94.5654C72.0151 91.9368 72.4207 89.7129 73.8369 87.995C75.2532 86.2772 77.2756 85.2673 79.9042 84.9654C80.6119 84.8647 81.4207 84.9662 82.2294 85.0678C83.0381 85.1693 83.7455 85.5741 84.453 85.9788C85.1604 86.3836 85.7669 86.5861 86.1711 86.8896C86.4743 86.9908 86.5753 87.1931 86.9795 87.4966C87.0808 87.1934 87.283 87.0924 87.5865 86.6882C87.89 86.2839 88.3958 85.7787 88.9015 85.2735C89.4072 84.7683 90.2162 84.3644 90.8229 84.0614C91.6319 83.6575 92.3396 83.5568 93.0474 83.456C95.676 83.1542 97.8998 83.5597 99.6177 84.976C101.336 86.3922 102.345 88.4147 102.647 91.0433C102.949 93.6719 102.139 96.6032 99.8121 99.5337L91.0109 110.751C90.8089 110.346 90.4044 110.548 89.7977 110.851Z" fill="white"/>
<g opacity="0.7">
<path opacity="0.7" d="M14.2758 118.999L-11.8193 142.642C-14.7525 145.37 -14.9572 150.02 -12.2292 152.953L0.703352 167.214C3.43134 170.147 8.08159 170.352 11.0148 167.624L18.7017 160.754L27.7999 161.264C28.3054 161.264 29.1143 160.86 29.0136 160.153L29.524 151.054L37.2108 144.184C40.144 141.456 40.3487 136.806 37.6207 133.873L24.6882 119.611C21.9602 116.678 17.209 116.271 14.2758 118.999Z" fill="#FF0B0B"/>
<path opacity="0.7" d="M20.6269 152.465C20.2224 152.667 20.0201 152.768 19.5147 152.768L8.89999 152.257C8.89999 152.257 8.69774 152.358 8.39451 152.256C8.19227 152.357 7.88904 152.256 7.28258 152.054C6.7771 152.053 6.17065 151.851 5.86742 151.75C5.26096 151.547 4.85673 151.244 4.25027 151.041C3.64381 150.839 3.13862 150.333 2.63342 149.827C1.42104 148.411 0.613133 146.793 0.816186 145.176C0.816995 143.659 1.52553 142.042 3.14375 140.729C3.44725 140.325 4.05397 140.022 4.6607 139.719C5.26743 139.416 5.77291 139.416 6.37964 139.113C6.88512 139.113 7.39059 139.114 7.79507 138.912C7.99732 138.811 8.30054 138.912 8.50278 138.811C8.60404 138.508 8.50306 138.305 8.60432 138.002C8.60459 137.497 8.70585 137.194 8.90836 136.587C9.11087 135.981 9.31338 135.374 9.61688 134.97C9.8194 134.363 10.3251 133.858 10.7296 133.656C12.1456 132.444 13.7635 131.636 15.3809 131.839C16.8974 131.84 18.6155 132.751 19.8279 134.167C21.0403 135.583 21.8479 137.706 21.7453 140.537L21.2341 151.151C21.0316 151.758 20.9304 152.061 20.6269 152.465Z" fill="white"/>
</g>
<g opacity="0.7">
<path opacity="0.7" d="M172.987 132.227L137.807 131.096C133.763 131.094 130.425 134.023 130.221 138.168L129.503 157.477C129.501 161.521 132.431 164.858 136.576 165.063L147.089 165.372L153.151 171.946C153.657 172.452 154.364 172.351 154.769 172.149L161.343 166.087L171.857 166.396C175.901 166.398 179.238 163.468 179.443 159.323L180.161 140.015C180.062 135.769 176.93 132.532 172.987 132.227Z" fill="#FF0B0B"/>
<path opacity="0.7" d="M154.371 160.725C154.067 160.624 153.562 160.624 153.36 160.219L145.984 152.532C145.984 152.532 145.883 152.33 145.58 152.229C145.479 152.026 145.075 151.723 144.873 151.318C144.671 150.914 144.165 150.408 143.964 150.004C143.762 149.599 143.459 148.992 143.358 148.285C143.257 147.577 142.954 146.97 143.157 146.364C143.158 144.342 143.866 142.725 145.08 141.613C146.294 140.502 147.81 139.997 149.832 139.998C150.338 139.999 150.944 140.201 151.551 140.404C152.157 140.606 152.561 140.91 153.168 141.112C153.572 141.416 153.976 141.719 154.381 142.023C154.482 142.225 154.785 142.326 154.886 142.528C155.088 142.427 155.29 142.326 155.391 142.023C155.796 141.821 156.099 141.417 156.706 141.114C157.313 140.811 157.717 140.609 158.324 140.306C158.931 140.003 159.436 140.003 159.942 140.004C161.964 140.005 163.581 140.713 164.591 141.725C165.703 142.939 166.207 144.455 166.206 146.477C166.205 148.499 165.193 150.52 163.069 152.339L155.281 159.513C155.078 160.624 154.876 160.725 154.371 160.725Z" fill="white"/>
</g>
<g opacity="0.7">
<path opacity="0.7" d="M86.3017 31.9952L61.9393 29.2526C59.21 28.8468 56.6815 30.8674 56.3767 33.7989L54.9542 47.1427C54.5484 49.872 56.5689 52.4005 59.5005 52.7053L66.6779 53.4168L70.618 58.2715C70.82 58.676 71.3254 58.6762 71.7299 58.4742L76.5846 54.5341L83.7619 55.2456C86.4912 55.6515 89.0197 53.6309 89.3245 50.6993L90.747 37.3556C91.0516 34.9295 89.031 32.401 86.3017 31.9952Z" fill="#FF0B0B"/>
<path opacity="0.7" d="M71.9362 50.7912C71.6329 50.6899 71.3297 50.5887 71.2287 50.3864L66.5814 44.6215L66.4805 44.4193C66.3795 44.217 66.2785 44.0148 66.1775 43.8125C65.9755 43.4081 65.8745 43.2058 65.6726 42.8013C65.4706 42.3968 65.3696 42.1946 65.3699 41.6891C65.3701 41.1836 65.1682 40.7792 65.2694 40.4759C65.3712 39.1618 65.8772 38.1511 66.7875 37.4439C67.6977 36.7367 68.8099 36.434 70.1241 36.5358C70.4273 36.6371 70.9328 36.6374 71.337 36.9409C71.6402 37.0421 72.0444 37.3456 72.4487 37.6491C72.8529 37.9526 72.9539 38.1549 73.2571 38.2561C73.3581 38.4584 73.3581 38.4584 73.6613 38.5596C73.8635 38.4586 73.8635 38.4586 74.0658 38.3576C74.268 38.2567 74.6725 38.0547 75.077 37.8527C75.4815 37.6507 75.886 37.4488 76.1892 37.55C76.5937 37.348 77.0992 37.3483 77.4024 37.4496C78.7166 37.5514 79.7273 38.0574 80.4344 38.9676C81.1416 39.8778 81.4443 40.99 81.3425 42.3042C81.2407 43.6184 80.4312 45.0333 78.813 46.3467L73.0481 50.9939C72.3407 50.5892 72.1384 50.6902 71.9362 50.7912Z" fill="white"/>
</g>
</svg>
