<svg width="290" height="277" viewBox="0 0 290 277" fill="none" xmlns="http://www.w3.org/2000/svg">
<path d="M100.391 200.94L76.4585 198.085C73.7399 197.821 71.2917 199.801 70.8315 202.406L69.2307 215.577C68.9662 218.296 70.9461 220.744 73.5517 221.204L80.6983 221.937L84.4623 226.72C84.7408 227.142 85.2453 227.173 85.6672 226.894L90.4505 223.13L97.5972 223.863C100.316 224.127 102.764 222.147 103.224 219.542L104.825 206.371C104.976 203.848 102.997 201.4 100.391 200.94Z" fill="#FF0B0B"/>
<path d="M86.0083 219.521C85.8126 219.408 85.6168 219.295 85.421 219.182L80.9043 213.442C80.9043 213.442 80.7085 213.329 80.8216 213.133C80.6258 213.02 80.543 212.712 80.4603 212.403C80.3776 212.094 80.0991 211.672 80.0163 211.363C79.9336 211.055 79.6551 210.633 79.6854 210.128C79.7156 209.624 79.6329 209.315 79.6632 208.81C79.9498 207.41 80.3192 206.318 81.1628 205.761C82.1195 205.008 83.0459 204.76 84.4466 205.046C84.9511 205.077 85.1469 205.19 85.5384 205.416C85.93 205.642 86.3215 205.868 86.5173 205.981C86.9088 206.207 86.9916 206.516 87.1873 206.629C87.3831 206.742 87.3831 206.742 87.4658 207.051C87.5789 206.855 87.7746 206.968 87.8876 206.772C88.1964 206.689 88.3095 206.493 88.7313 206.215C89.1531 205.936 89.4619 205.854 89.7707 205.771C90.0795 205.688 90.5841 205.719 90.8929 205.636C92.0978 205.809 93.3854 206.292 93.9424 207.135C94.6952 208.092 94.8304 209.214 94.6568 210.419C94.3702 211.82 93.692 212.994 92.2005 214.222L86.4605 218.738C86.6259 219.356 86.3171 219.439 86.0083 219.521Z" fill="white"/>
<path d="M146.166 266.782L114.332 243.705C110.643 241.053 105.733 241.872 103.08 245.561L90.4982 262.833C87.8461 266.523 88.6654 271.433 92.3547 274.085L101.774 280.829L103.412 290.649C103.578 291.267 104.248 291.915 104.866 291.749L114.686 290.111L124.106 296.854C127.795 299.506 132.705 298.687 135.357 294.998L147.94 277.726C150.561 274.541 149.659 269.322 146.166 266.782Z" fill="#FF0B0B"/>
<path d="M111.248 281.6C110.856 281.374 110.773 281.065 110.608 280.447L108.669 268.887C108.669 268.887 108.586 268.578 108.503 268.269C108.42 267.96 108.338 267.651 108.481 266.951C108.511 266.446 108.346 265.829 108.489 265.129C108.519 264.624 108.663 263.924 108.806 263.223C108.949 262.523 109.288 261.936 109.627 261.348C110.953 259.504 112.528 258.585 114.267 258.285C116.007 257.984 117.799 258.497 119.644 259.823C120.231 260.162 120.706 260.697 120.984 261.119C121.458 261.653 121.624 262.271 121.789 262.889C121.955 263.506 122.233 263.928 122.203 264.433C122.286 264.741 122.369 265.05 122.369 265.05C122.677 264.967 122.873 265.08 123.182 264.998C123.687 265.028 124.191 265.058 124.809 264.893C125.509 265.036 126.014 265.066 126.714 265.21C127.414 265.353 128.002 265.692 128.589 266.031C130.434 267.357 131.352 268.931 131.653 270.671C131.953 272.411 131.441 274.203 130.114 276.048C128.788 277.892 126.597 278.976 123.622 279.608L112.061 281.547C111.835 281.939 111.639 281.826 111.248 281.6Z" fill="white"/>
<g opacity="0.7">
<path opacity="0.7" d="M60.6361 244.026L31.3935 243.588C28.0573 243.489 25.3528 246.365 25.3668 249.505L25.0153 265.486C24.9163 268.822 27.7923 271.527 30.9327 271.512L39.5406 271.523L44.788 276.902C45.0665 277.323 45.8799 277.271 46.1059 276.879L51.4847 271.632L60.0926 271.642C63.4288 271.741 66.1333 268.865 66.1193 265.725L66.4708 249.744C66.6525 246.717 63.8896 243.817 60.6361 244.026Z" fill="#FF0B0B"/>
<path opacity="0.7" d="M45.642 267.736C45.3332 267.819 44.9417 267.593 44.8589 267.284L38.7457 261.145C38.7457 261.145 38.55 261.032 38.3542 260.919C38.1584 260.806 38.0757 260.497 37.6842 260.271C37.4056 259.849 37.3229 259.54 37.0444 259.118C36.7659 258.696 36.6831 258.388 36.5177 257.77C36.3522 257.152 36.3824 256.648 36.4127 256.143C36.3078 254.517 36.7902 253.229 37.8599 252.28C38.9296 251.332 40.1648 251.001 41.7915 250.896C42.2961 250.926 42.8007 250.957 43.1922 251.183C43.5837 251.409 44.0883 251.439 44.5626 251.974C44.9541 252.2 45.3457 252.426 45.4284 252.735C45.6242 252.848 45.8199 252.961 45.7069 253.156C45.8199 252.961 46.1287 252.878 46.1287 252.878C46.4375 252.795 46.6636 252.404 47.0854 252.125C47.5072 251.847 47.9291 251.568 48.4336 251.598C49.0512 251.433 49.36 251.35 49.8646 251.381C51.4913 251.276 52.7789 251.758 53.7275 252.828C54.6761 253.897 55.007 255.133 55.1119 256.759C55.2169 258.386 54.1996 260.148 52.5951 261.571L46.2596 267.571C46.2596 267.571 45.9508 267.654 45.642 267.736Z" fill="white"/>
</g>
<g opacity="0.7">
<path opacity="0.7" d="M153.527 231.879L140.277 216.398C138.659 214.681 136.136 214.529 134.336 215.839L126.004 223.036C124.287 224.655 124.135 227.178 125.445 228.978L129.322 233.565L128.906 238.807C128.989 239.116 129.267 239.537 129.576 239.455L134.817 239.871L138.694 244.458C140.313 246.176 142.836 246.327 144.636 245.017L152.968 237.82C154.685 236.202 154.95 233.483 153.527 231.879Z" fill="#FF0B0B"/>
<path opacity="0.7" d="M134.194 235.073C133.998 234.96 133.915 234.651 134.028 234.456L134.392 228.401C134.392 228.401 134.505 228.205 134.309 228.092C134.309 228.092 134.226 227.783 134.452 227.392C134.566 227.196 134.596 226.691 134.709 226.496C134.822 226.3 135.048 225.908 135.161 225.713C135.387 225.321 135.5 225.125 135.922 224.847C136.879 224.094 137.609 223.733 138.618 223.793C139.627 223.854 140.41 224.306 141.163 225.263C141.359 225.376 141.638 225.798 141.72 226.106C141.803 226.415 141.886 226.724 141.968 227.033C142.051 227.342 142.134 227.65 142.021 227.846L142.104 228.155C142.299 228.268 142.299 228.268 142.608 228.185C142.804 228.298 143.113 228.215 143.504 228.441C143.7 228.555 144.205 228.585 144.4 228.698C144.792 228.924 144.988 229.037 145.071 229.346C145.823 230.302 146.185 231.033 146.124 232.042C146.063 233.051 145.611 233.834 144.655 234.587C143.698 235.34 142.463 235.671 140.949 235.58L134.894 235.217C134.586 235.299 134.39 235.186 134.194 235.073Z" fill="white"/>
</g>
<path d="M159.275 156.367L122.016 142.687C117.762 141.013 113.069 143.264 111.396 147.518L103.904 167.729C102.23 171.983 104.481 176.676 108.735 178.349L119.737 182.351L124.041 191.623C124.403 192.354 125.103 192.497 125.721 192.332L134.993 188.027L145.994 192.03C150.249 193.703 154.941 191.453 156.614 187.198L164.107 166.987C165.78 162.733 163.53 158.04 159.275 156.367Z" fill="#FF0B0B"/>
<path d="M129.588 180.208C129.196 179.982 128.805 179.756 128.722 179.447L123.695 168.714C123.695 168.714 123.612 168.405 123.416 168.292C123.334 167.984 123.251 167.675 123.085 167.057C122.92 166.44 122.754 165.822 122.785 165.317C122.619 164.7 122.65 164.195 122.597 163.382C122.545 162.569 122.688 161.868 123.027 161.281C123.766 159.097 125.062 157.757 126.523 157.035C128.293 156.229 130.115 156.237 131.99 157.059C132.578 157.398 133.165 157.737 133.752 158.076C134.339 158.415 134.814 158.95 134.979 159.568C135.453 160.103 135.732 160.524 136.011 160.946C136.093 161.255 136.289 161.368 136.372 161.677C136.681 161.594 136.794 161.398 137.102 161.316C137.524 161.037 138.029 161.067 138.646 160.902C139.264 160.736 140.077 160.684 140.582 160.714C141.282 160.858 141.787 160.888 142.487 161.031C144.671 161.77 146.011 163.066 146.733 164.527C147.539 166.297 147.531 168.119 146.596 170.19C145.857 172.374 144.14 173.992 141.217 175.437L130.484 180.465C130.288 180.352 129.784 180.321 129.588 180.208Z" fill="white"/>
<path d="M195.703 35.4015L168.158 25.241C165.191 24.0501 161.651 25.6606 160.347 28.8232L154.898 43.6876C153.707 46.6544 155.317 50.1945 158.48 51.4984L166.597 54.6188L169.736 61.3901C170.014 61.812 170.601 62.151 171.023 61.8725L177.795 58.7343L185.912 61.8547C188.879 63.0455 192.419 61.4351 193.723 58.2725L199.09 43.0993C200.394 39.9367 198.783 36.3966 195.703 35.4015Z" fill="#FF0B0B"/>
<path d="M173.587 52.9117C173.391 52.7987 172.999 52.5726 172.917 52.2638L169.139 44.34C169.139 44.34 168.943 44.227 169.056 44.0312C168.86 43.9182 168.777 43.6094 168.808 43.1048C168.725 42.796 168.559 42.1785 168.477 41.8697C168.394 41.5609 168.424 41.0563 168.259 40.4387C168.289 39.9341 168.319 39.4296 168.658 38.8423C169.254 37.3588 170.128 36.2973 171.28 35.6575C172.433 35.0177 173.946 35.1086 175.43 35.704C175.821 35.9301 176.213 36.1561 176.604 36.3822C176.996 36.6082 177.274 37.0301 177.553 37.4519C177.831 37.8737 177.914 38.1825 178.306 38.4086C178.501 38.5216 178.388 38.7174 178.584 38.8304C178.893 38.7476 178.893 38.7476 179.202 38.6649C179.511 38.5822 179.932 38.3037 180.437 38.3339C180.941 38.3642 181.363 38.0857 181.868 38.116C182.372 38.1463 182.877 38.1766 183.269 38.4026C184.752 38.998 185.814 39.872 186.453 41.0244C187.093 42.1769 187.002 43.6906 186.407 45.174C185.811 46.6574 184.516 47.9975 182.324 49.0812L174.4 52.8592C174.091 52.942 173.895 52.829 173.587 52.9117Z" fill="white"/>
<path d="M230.408 125.392L199.557 89.3092C196.154 85.2564 189.904 84.78 185.851 88.1827L166.205 105.031C162.152 108.433 161.676 114.684 165.078 118.737L174.255 129.516L173.333 141.513C173.385 142.326 173.942 143.17 174.755 143.118L186.752 144.04L195.929 154.82C199.332 158.873 205.582 159.349 209.635 155.946L229.281 139.098C233.53 135.809 234.006 129.558 230.408 125.392Z" fill="#FF0B0B"/>
<path d="M185.4 132.819C185.121 132.397 184.843 131.975 184.873 131.47L185.721 117.343C185.721 117.343 185.638 117.034 185.864 116.642C185.782 116.333 186.008 115.942 186.151 115.242C186.294 114.541 186.438 113.841 186.777 113.254C186.92 112.553 187.372 111.77 187.711 111.183C188.163 110.4 188.811 109.73 189.346 109.256C191.373 107.554 193.451 106.666 195.665 106.9C197.879 107.135 199.837 108.265 201.538 110.291C202.013 110.826 202.374 111.557 202.735 112.287C203.096 113.018 203.149 113.831 203.201 114.645C203.254 115.458 203.419 116.076 203.389 116.58C203.472 116.889 203.359 117.085 203.328 117.589C203.637 117.507 203.833 117.62 204.338 117.65C204.842 117.68 205.543 117.823 206.243 117.967C206.943 118.11 207.726 118.562 208.314 118.901C209.097 119.353 209.571 119.888 210.045 120.423C211.747 122.449 212.635 124.528 212.4 126.742C212.166 128.956 211.036 130.914 209.01 132.615C206.983 134.317 204.091 135.257 200.363 134.932L186.153 133.775C186.379 133.384 185.987 133.158 185.4 132.819Z" fill="white"/>
<g opacity="0.7">
<path opacity="0.7" d="M136.957 74.3103L102.844 65.5785C98.9512 64.6359 94.9591 67.0294 94.0165 70.9227L89.2509 89.5754C88.3083 93.4686 90.7018 97.4607 94.5951 98.4034L104.565 101.027L109.157 108.899C109.435 109.321 110.218 109.773 110.753 109.298L118.624 104.707L128.595 107.331C132.488 108.274 136.48 105.88 137.423 101.987L142.188 83.3341C143.131 79.4409 140.85 75.2529 136.957 74.3103Z" fill="#FF0B0B"/>
<path opacity="0.7" d="M112.541 98.0627C112.15 97.8366 111.954 97.7236 111.676 97.3018L106.249 88.165C106.249 88.165 106.053 88.0519 105.97 87.7431C105.774 87.6301 105.692 87.3213 105.526 86.7037C105.248 86.2819 105.082 85.6643 104.999 85.3555C104.834 84.7379 104.864 84.2333 104.699 83.6157C104.533 82.9982 104.677 82.2978 104.82 81.5975C105.333 79.8053 106.237 78.2391 107.698 77.5166C108.963 76.6811 110.703 76.3804 112.691 77.0061C113.196 77.0364 113.783 77.3755 114.37 77.7146C114.958 78.0537 115.236 78.4755 115.823 78.8146C116.102 79.2364 116.381 79.6582 116.772 79.8843C116.968 79.9973 117.051 80.3061 117.246 80.4191C117.555 80.3364 117.668 80.1406 117.977 80.0579C118.399 79.7794 118.708 79.6966 119.325 79.5311C119.943 79.3657 120.56 79.2002 121.065 79.2305C121.683 79.065 122.383 79.2083 122.774 79.4343C124.567 79.947 126.133 80.8512 126.855 82.3125C127.691 83.5779 127.878 85.5135 127.366 87.3057C126.853 89.0979 125.527 90.9425 123.109 92.4178L113.972 97.8447C113.355 98.0102 113.046 98.093 112.541 98.0627Z" fill="white"/>
</g>
<g opacity="0.7">
<path opacity="0.7" d="M213.442 214.004L194.985 184.032C192.757 180.658 188.473 179.489 184.902 181.604L168.399 191.653C165.024 193.881 163.855 198.165 165.97 201.736L171.51 210.677L169.369 219.359C169.225 220.06 169.7 220.595 170.091 220.821L178.774 222.962L184.314 231.903C186.542 235.278 190.827 236.447 194.397 234.331L210.901 224.283C214.388 221.859 215.361 217.461 213.442 214.004Z" fill="#FF0B0B"/>
<path opacity="0.7" d="M179.402 214.189C179.319 213.88 179.041 213.458 179.267 213.067L181.612 202.675C181.612 202.675 181.725 202.479 181.642 202.17C181.755 201.974 181.786 201.47 182.012 201.078C182.238 200.687 182.381 199.986 182.607 199.595C182.833 199.203 183.172 198.616 183.707 198.142C184.242 197.667 184.581 197.08 185.199 196.914C186.886 195.8 188.626 195.5 190.222 195.899C191.819 196.299 193.076 197.286 194.19 198.973C194.468 199.395 194.634 200.013 194.799 200.63C194.965 201.248 194.935 201.752 195.1 202.37C195.07 202.875 195.04 203.379 195.009 203.884C194.896 204.08 194.979 204.388 194.866 204.584C195.062 204.697 195.257 204.81 195.566 204.727C195.958 204.953 196.462 204.984 197.05 205.323C197.637 205.662 198.029 205.888 198.616 206.227C199.203 206.566 199.482 206.988 199.76 207.41C200.874 209.097 201.175 210.837 200.888 212.238C200.489 213.834 199.502 215.091 197.814 216.205C196.127 217.319 193.883 217.59 191.194 216.821L180.915 214.28C179.876 214.724 179.68 214.61 179.402 214.189Z" fill="white"/>
</g>
<g opacity="0.7">
<path opacity="0.7" d="M249.255 86.4182L238.109 64.5823C236.942 62.0817 233.862 61.0866 231.249 62.4489L219.333 68.6205C216.832 69.787 215.837 72.8668 217.199 75.4805L220.563 81.8603L218.686 87.8242C218.46 88.2158 218.739 88.6376 219.13 88.8636L225.094 90.7408L228.459 97.1206C229.625 99.6212 232.705 100.616 235.319 99.254L247.235 93.0825C249.426 91.9987 250.422 88.9189 249.255 86.4182Z" fill="#FF0B0B"/>
<path opacity="0.7" d="M225.653 84.7991C225.571 84.4903 225.488 84.1815 225.601 83.9857L227.847 76.9299L227.96 76.7342C228.073 76.5384 228.187 76.3426 228.3 76.1469C228.526 75.7553 228.639 75.5596 228.865 75.168C229.091 74.7765 229.204 74.5807 229.626 74.3022C230.047 74.0237 230.273 73.6321 230.582 73.5494C231.735 72.9096 232.857 72.7745 233.949 73.1438C235.041 73.5132 235.906 74.2741 236.546 75.4265C236.629 75.7353 236.907 76.1572 236.877 76.6617C236.96 76.9705 236.93 77.4751 236.899 77.9796C236.869 78.4842 236.756 78.68 236.839 78.9888C236.726 79.1846 236.726 79.1845 236.808 79.4933C237.004 79.6064 237.004 79.6064 237.2 79.7194C237.396 79.8324 237.787 80.0585 238.179 80.2845C238.57 80.5106 238.962 80.7366 239.045 81.0454C239.436 81.2715 239.715 81.6933 239.797 82.0021C240.437 83.1546 240.572 84.2767 240.203 85.3686C239.834 86.4605 239.073 87.3263 237.92 87.966C236.768 88.6058 235.141 88.7107 233.153 88.085L226.097 85.8385C226.045 85.0252 225.849 84.9121 225.653 84.7991Z" fill="white"/>
</g>
</svg>
