<svg width="19" height="19" viewBox="0 0 19 19" fill="none" xmlns="http://www.w3.org/2000/svg">
<path d="M9.65215 6.18515C8.01705 6.18515 6.68268 7.51952 6.68268 9.15462C6.68268 10.7897 8.01705 12.1241 9.65215 12.1241C11.2873 12.1241 12.6216 10.7897 12.6216 9.15462C12.6216 7.51952 11.2873 6.18515 9.65215 6.18515ZM18.5583 9.15462C18.5583 7.92495 18.5695 6.70642 18.5004 5.47898C18.4314 4.05328 18.1061 2.78797 17.0636 1.74542C16.0188 0.70065 14.7557 0.377639 13.33 0.308582C12.1003 0.239524 10.8818 0.250663 9.65438 0.250663C8.42471 0.250663 7.20618 0.239524 5.97874 0.308582C4.55304 0.377639 3.28772 0.702878 2.24518 1.74542C1.20041 2.7902 0.877395 4.05328 0.808338 5.47898C0.73928 6.70865 0.750418 7.92718 0.750418 9.15462C0.750418 10.3821 0.73928 11.6028 0.808338 12.8303C0.877395 14.256 1.20263 15.5213 2.24518 16.5638C3.28995 17.6086 4.55304 17.9316 5.97874 18.0007C7.20841 18.0697 8.42694 18.0586 9.65438 18.0586C10.884 18.0586 12.1026 18.0697 13.33 18.0007C14.7557 17.9316 16.021 17.6064 17.0636 16.5638C18.1083 15.519 18.4314 14.256 18.5004 12.8303C18.5717 11.6028 18.5583 10.3843 18.5583 9.15462ZM9.65215 13.7236C7.12375 13.7236 5.08322 11.683 5.08322 9.15462C5.08322 6.62623 7.12375 4.58569 9.65215 4.58569C12.1805 4.58569 14.2211 6.62623 14.2211 9.15462C14.2211 11.683 12.1805 13.7236 9.65215 13.7236ZM14.4082 5.46561C13.8179 5.46561 13.3412 4.9889 13.3412 4.39857C13.3412 3.80824 13.8179 3.33152 14.4082 3.33152C14.9985 3.33152 15.4753 3.80824 15.4753 4.39857C15.4754 4.53874 15.448 4.67758 15.3944 4.80712C15.3408 4.93666 15.2622 5.05436 15.1631 5.15348C15.064 5.2526 14.9463 5.33119 14.8168 5.38475C14.6872 5.43831 14.5484 5.46579 14.4082 5.46561Z" fill="white"/>
</svg>
