<svg width="50" height="50" viewBox="0 0 50 50" fill="none" xmlns="http://www.w3.org/2000/svg">
<path d="M7.22265 2.53894C3.78542 2.53894 1.53809 4.796 1.53809 7.7626C1.53809 10.6637 3.71847 12.9851 7.09076 12.9851H7.15599C10.6605 12.9851 12.8414 10.6637 12.8414 7.7626C12.7759 4.796 10.6605 2.53894 7.22265 2.53894V2.53894Z" fill="#2184BD"/>
<path d="M2.13208 17.1127H12.1806V47.344H2.13208V17.1127Z" fill="#2184BD"/>
<path d="M36.845 16.4032C31.4242 16.4032 27.7892 21.497 27.7892 21.497V17.1127H17.7405V47.344H27.7887V30.4617C27.7887 29.5579 27.8542 28.6555 28.1197 28.0092C28.8461 26.2045 30.4992 24.3348 33.2753 24.3348C36.9113 24.3348 38.3656 27.1071 38.3656 31.1712V47.344H48.4132V30.0099C48.4132 20.7242 43.4556 16.4032 36.845 16.4032V16.4032Z" fill="#2184BD"/>
</svg>
