<svg width="278" height="277" viewBox="0 0 278 277" fill="none" xmlns="http://www.w3.org/2000/svg">
<path d="M205.889 209.137L238.003 206.409C241.625 206.244 244.847 208.824 245.012 212.446L246.356 229.915C246.521 233.537 243.941 236.759 240.319 236.924L230.895 237.731L225.593 243.954C225.296 244.457 224.574 244.302 224.072 244.005L217.848 238.703L208.424 239.51C204.802 239.675 201.58 237.095 201.415 233.473L200.071 216.004C199.467 212.665 202.047 209.444 205.889 209.137Z" fill="#FF0B0B"/>
<path fill-rule="evenodd" clip-rule="evenodd" d="M223.973 223.715C226.936 223.415 229.094 220.771 228.795 217.808C228.496 214.846 225.851 212.687 222.889 212.987C219.926 213.286 217.767 215.93 218.067 218.893C218.366 221.855 221.011 224.014 223.973 223.715Z" fill="white"/>
<path fill-rule="evenodd" clip-rule="evenodd" d="M215.264 231.369L215.109 229.836C214.895 227.72 216.208 225.855 218.042 225.669L230.176 224.443C232.01 224.257 233.67 225.827 233.883 227.939L234.038 229.471L215.264 231.369Z" fill="white"/>
<path d="M142.622 294.467L185.901 265.254C190.944 261.996 197.659 263.25 200.776 268.073L216.658 291.686C219.916 296.728 218.662 303.444 213.839 306.561L201.046 315.139L198.615 328.21C198.382 329.292 197.505 329.859 196.642 329.485L183.571 327.054L170.778 335.632C165.736 338.891 159.02 337.636 155.903 332.813L140.022 309.2C136.325 304.441 137.579 297.726 142.622 294.467Z" fill="#FF0B0B"/>
<g opacity="0.7">
<path opacity="0.7" d="M256.531 267.783L295.256 268.553C299.6 268.542 303.311 272.36 303.102 276.846L302.729 297.91C302.739 302.255 298.921 305.965 294.435 305.756L283.001 305.376L275.881 312.153C275.365 312.797 274.643 312.642 273.999 312.126L267.222 305.006L255.788 304.626C251.444 304.636 247.733 300.818 247.942 296.332L248.315 275.268C248.446 271.143 252.186 267.793 256.531 267.783Z" fill="#FF0B0B"/>
<g opacity="0.7">
<path fill-rule="evenodd" clip-rule="evenodd" d="M275.832 290.404C279.655 290.51 282.841 287.497 282.947 283.674C283.054 279.851 280.041 276.665 276.218 276.559C272.394 276.452 269.209 279.465 269.102 283.288C268.996 287.111 272.009 290.297 275.832 290.404Z" fill="white"/>
</g>
</g>
<g opacity="0.7">
<path opacity="0.7" d="M134.166 247.718L152.405 227.85C154.392 225.634 158.014 225.469 160.23 227.455L170.95 237.31C173.167 239.297 173.332 242.919 171.346 245.135L165.902 251.14L166.311 258.024C166.375 258.604 165.936 258.887 165.356 258.951L158.472 259.36L153.028 265.364C151.042 267.58 147.419 267.746 145.203 265.759L134.483 255.904C131.984 253.479 131.96 250.076 134.166 247.718Z" fill="#FF0B0B"/>
<g opacity="0.7">
<path fill-rule="evenodd" clip-rule="evenodd" d="M154.261 247.994C156.267 245.979 156.259 242.721 154.245 240.715C152.23 238.709 148.971 238.717 146.966 240.731C144.96 242.746 144.968 246.005 146.982 248.01C148.997 250.016 152.256 250.008 154.261 247.994Z" fill="white"/>
<path fill-rule="evenodd" clip-rule="evenodd" d="M152.466 258.916L151.424 257.878C149.985 256.446 149.825 254.274 151.066 253.027L159.28 244.776C160.522 243.529 162.697 243.682 164.133 245.112L165.176 246.149L152.466 258.916Z" fill="white"/>
</g>
</g>
<path d="M165.548 149.118L131.422 176.144C127.54 179.275 126.879 184.985 130.01 188.867L144.656 207.684C147.787 211.566 153.497 212.227 157.379 209.096L167.413 201.058L178.473 202.302C179.195 202.457 180.072 201.89 180.085 200.949L181.329 189.889L191.363 181.851C195.245 178.72 195.906 173.01 192.776 169.128L178.129 150.311C175.282 146.867 169.571 146.207 165.548 149.118Z" fill="#FF0B0B"/>
<path fill-rule="evenodd" clip-rule="evenodd" d="M163.91 181.149C167.19 178.7 167.863 174.055 165.413 170.775C162.963 167.496 158.318 166.823 155.039 169.273C151.759 171.723 151.086 176.368 153.536 179.647C155.986 182.927 160.631 183.599 163.91 181.149Z" fill="white"/>
<path fill-rule="evenodd" clip-rule="evenodd" d="M159.064 196.335L157.796 194.638C156.046 192.296 156.273 189.167 158.303 187.651L171.736 177.616C173.766 176.1 176.834 176.774 178.58 179.112L179.847 180.809L159.064 196.335Z" fill="white"/>
<path d="M73.0474 45.4193L47.6403 65.2574C44.7127 67.4602 44.3622 71.7269 46.565 74.6545L57.3729 88.493C59.5756 91.4206 63.8424 91.7711 66.77 89.5684L74.2373 83.8102L82.3325 84.7946C82.9126 84.7304 83.3511 84.4471 83.5062 83.7252L84.4906 75.6301L91.9579 69.872C94.8854 67.6692 95.2359 63.4024 93.0332 60.4748L82.2253 46.6363C80.0226 43.7088 75.975 43.2166 73.0474 45.4193Z" fill="#FF0B0B"/>
<path fill-rule="evenodd" clip-rule="evenodd" d="M71.4745 69.1258C74.1122 67.1745 74.6686 63.4544 72.7173 60.8167C70.7661 58.179 67.046 57.6226 64.4083 59.5738C61.7706 61.5251 61.2141 65.2452 63.1654 67.8829C65.1167 70.5206 68.8368 71.077 71.4745 69.1258Z" fill="white"/>
<path fill-rule="evenodd" clip-rule="evenodd" d="M67.5331 81.2789L66.5236 79.9143C65.1299 78.0303 65.3234 75.5239 66.9561 74.3161L77.7598 66.3239C79.3924 65.1162 81.8486 65.6683 83.2395 67.5485L84.2489 68.9131L67.5331 81.2789Z" fill="white"/>
<path d="M177.469 64.6486L125.873 72.8181C119.994 73.8202 116.008 79.1936 117.01 85.0726L121.531 113.23C122.534 119.109 127.907 123.095 133.786 122.093L149.025 119.704L159.772 127.677C160.416 128.193 161.576 128.065 162.311 127.279L170.284 116.532L185.523 114.143C191.402 113.141 195.389 107.767 194.386 101.888L189.865 73.7311C188.863 67.8522 183.348 63.6465 177.469 64.6486Z" fill="#FF0B0B"/>
<path fill-rule="evenodd" clip-rule="evenodd" d="M157.403 95.0157C162.348 94.4117 165.866 89.9141 165.262 84.9699C164.658 80.0258 160.16 76.5074 155.216 77.1114C150.272 77.7154 146.754 82.2131 147.358 87.1572C147.962 92.1014 152.459 95.6197 157.403 95.0157Z" fill="white"/>
<path fill-rule="evenodd" clip-rule="evenodd" d="M143.104 108.12L142.792 105.562C142.36 102.031 144.491 98.8649 147.552 98.4911L167.802 96.0171C170.863 95.6433 173.694 98.2102 174.124 101.735L174.437 104.292L143.104 108.12Z" fill="white"/>
<g opacity="0.7">
<path opacity="0.7" d="M75.8523 122.859L47.9531 149.902C44.6512 152.968 44.7257 157.893 47.792 161.195L62.4924 176.247C65.5586 179.549 70.4831 179.475 73.785 176.409L81.9369 168.343L91.9276 168.413C92.6494 168.568 93.1654 167.924 93.3205 167.202L93.3907 157.212L101.543 149.146C104.844 146.08 104.77 141.156 101.704 137.854L87.0033 122.801C84.2205 119.938 78.935 119.935 75.8523 122.859Z" fill="#FF0B0B"/>
<g opacity="0.7">
<path fill-rule="evenodd" clip-rule="evenodd" d="M77.093 151.21C79.8385 148.547 79.9054 144.162 77.2426 141.417C74.5798 138.672 70.1955 138.605 67.4501 141.267C64.7046 143.93 64.6377 148.314 67.3005 151.06C69.9633 153.805 74.3476 153.872 77.093 151.21Z" fill="white"/>
<path fill-rule="evenodd" clip-rule="evenodd" d="M74.4208 165.861L73.0433 164.44C71.1413 162.479 70.9768 159.554 72.6762 157.905L83.9213 146.999C85.6206 145.351 88.5439 145.608 90.442 147.565L91.8196 148.986L74.4208 165.861Z" fill="white"/>
</g>
</g>
<g opacity="0.7">
<path opacity="0.7" d="M151.902 24.6068L124.999 22.4128C122.034 22.1533 119.249 24.5752 118.989 27.5401L117.911 42.2227C117.651 45.1875 120.073 47.9734 123.038 48.2329L130.85 48.7788L135.41 53.9121C135.694 54.3506 136.274 54.2864 136.712 54.0031L141.846 49.4425L149.657 49.9884C152.622 50.2479 155.408 47.8259 155.668 44.8611L156.746 30.1786C157.289 27.6522 154.867 24.8663 151.902 24.6068Z" fill="#FF0B0B"/>
<g opacity="0.7">
<path fill-rule="evenodd" clip-rule="evenodd" d="M137.773 37.846C140.413 37.9691 142.653 35.9287 142.776 33.2888C142.899 30.6488 140.859 28.4089 138.219 28.2858C135.579 28.1628 133.339 30.2031 133.216 32.8431C133.093 35.4831 135.133 37.7229 137.773 37.846Z" fill="white"/>
<path fill-rule="evenodd" clip-rule="evenodd" d="M129.129 43.4315L129.193 42.0657C129.281 40.18 130.677 38.7131 132.311 38.7893L143.124 39.2934C144.758 39.3695 146.011 40.9638 145.923 42.8456L145.86 44.2114L129.129 43.4315Z" fill="white"/>
</g>
</g>
</svg>
