<svg width="210" height="418" viewBox="0 0 210 418" fill="none" xmlns="http://www.w3.org/2000/svg">
<path d="M208.685 348.119L252.104 344.612C257.107 344.176 261.397 347.93 261.833 352.932L263.74 376.563C264.175 381.565 260.422 385.856 255.42 386.291L242.515 387.483L235.226 395.922C234.71 396.567 233.769 396.553 233.125 396.037L224.685 388.749L211.78 389.94C206.778 390.376 202.488 386.622 202.052 381.62L200.145 357.989C200.29 352.923 203.902 348.413 208.685 348.119Z" fill="#FF0B0B"/>
<path d="M205.889 209.137L238.003 206.409C241.625 206.244 244.847 208.824 245.012 212.447L246.356 229.915C246.521 233.537 243.941 236.759 240.319 236.924L230.895 237.731L225.593 243.955C225.296 244.457 224.574 244.302 224.072 244.005L217.848 238.703L208.424 239.51C204.802 239.676 201.58 237.096 201.415 233.473L200.071 216.005C199.467 212.665 202.047 209.444 205.889 209.137Z" fill="#FF0B0B"/>
<path d="M142.622 294.467L185.901 265.254C190.944 261.996 197.659 263.25 200.776 268.073L216.658 291.686C219.916 296.728 218.662 303.444 213.839 306.561L201.046 315.139L198.615 328.21C198.382 329.292 197.505 329.859 196.642 329.485L183.571 327.054L170.778 335.632C165.736 338.891 159.02 337.636 155.903 332.813L140.022 309.2C136.325 304.441 137.579 297.726 142.622 294.467Z" fill="#FF0B0B"/>
<path fill-rule="evenodd" clip-rule="evenodd" d="M181.273 302.287C185.689 299.451 186.97 293.572 184.134 289.155C181.298 284.739 175.419 283.458 171.003 286.295C166.587 289.131 165.306 295.01 168.142 299.426C170.978 303.842 176.857 305.123 181.273 302.287Z" fill="white"/>
<path fill-rule="evenodd" clip-rule="evenodd" d="M173.699 321.268L172.232 318.984C170.206 315.829 170.78 311.849 173.513 310.094L191.601 298.477C194.335 296.722 198.197 297.863 200.219 301.01L201.686 303.295L173.699 321.268Z" fill="white"/>
<g opacity="0.7">
<path opacity="0.7" d="M134.166 247.719L152.405 227.851C154.392 225.634 158.014 225.469 160.23 227.455L170.95 237.31C173.167 239.297 173.332 242.919 171.346 245.136L165.902 251.14L166.311 258.024C166.375 258.604 165.936 258.888 165.356 258.952L158.472 259.36L153.028 265.365C151.042 267.581 147.419 267.746 145.203 265.76L134.483 255.905C131.984 253.48 131.96 250.076 134.166 247.719Z" fill="#FF0B0B"/>
<g opacity="0.7">
<path fill-rule="evenodd" clip-rule="evenodd" d="M154.261 247.994C156.267 245.98 156.259 242.721 154.245 240.715C152.23 238.71 148.971 238.717 146.966 240.732C144.96 242.746 144.968 246.005 146.982 248.011C148.997 250.016 152.256 250.009 154.261 247.994Z" fill="white"/>
<path fill-rule="evenodd" clip-rule="evenodd" d="M152.466 258.917L151.424 257.879C149.985 256.447 149.825 254.275 151.066 253.028L159.28 244.776C160.522 243.529 162.697 243.683 164.133 245.112L165.176 246.15L152.466 258.917Z" fill="white"/>
</g>
</g>
<path d="M165.548 149.118L131.422 176.144C127.54 179.275 126.879 184.985 130.01 188.867L144.656 207.684C147.787 211.566 153.497 212.227 157.379 209.096L167.413 201.058L178.473 202.302C179.195 202.457 180.072 201.89 180.085 200.949L181.329 189.889L191.363 181.851C195.245 178.72 195.906 173.01 192.776 169.128L178.129 150.311C175.282 146.868 169.571 146.207 165.548 149.118Z" fill="#FF0B0B"/>
<path fill-rule="evenodd" clip-rule="evenodd" d="M163.91 181.15C167.19 178.7 167.863 174.055 165.413 170.775C162.963 167.496 158.318 166.823 155.039 169.273C151.759 171.723 151.086 176.368 153.536 179.647C155.986 182.927 160.631 183.6 163.91 181.15Z" fill="white"/>
<path fill-rule="evenodd" clip-rule="evenodd" d="M159.064 196.335L157.796 194.639C156.046 192.296 156.273 189.168 158.303 187.651L171.736 177.617C173.766 176.101 176.834 176.775 178.58 179.113L179.847 180.81L159.064 196.335Z" fill="white"/>
<path d="M73.0474 45.4196L47.6403 65.2576C44.7127 67.4604 44.3622 71.7272 46.565 74.6547L57.3729 88.4933C59.5756 91.4208 63.8424 91.7713 66.77 89.5686L74.2373 83.8104L82.3325 84.7948C82.9126 84.7307 83.3511 84.4473 83.5062 83.7255L84.4906 75.6303L91.9579 69.8722C94.8854 67.6694 95.2359 63.4026 93.0332 60.4751L82.2253 46.6366C80.0226 43.709 75.975 43.2168 73.0474 45.4196Z" fill="#FF0B0B"/>
<path fill-rule="evenodd" clip-rule="evenodd" d="M71.4745 69.126C74.1122 67.1747 74.6686 63.4546 72.7173 60.817C70.7661 58.1793 67.046 57.6228 64.4083 59.5741C61.7706 61.5254 61.2141 65.2454 63.1654 67.8831C65.1167 70.5208 68.8368 71.0773 71.4745 69.126Z" fill="white"/>
<path fill-rule="evenodd" clip-rule="evenodd" d="M67.5331 81.2788L66.5236 79.9142C65.1299 78.0302 65.3234 75.5238 66.9561 74.316L77.7598 66.3238C79.3924 65.1161 81.8486 65.6682 83.2395 67.5484L84.2489 68.913L67.5331 81.2788Z" fill="white"/>
<path d="M177.469 64.6485L125.873 72.8179C119.994 73.8201 116.008 79.1935 117.01 85.0724L121.531 113.23C122.534 119.109 127.907 123.095 133.786 122.093L149.025 119.704L159.772 127.677C160.416 128.193 161.576 128.064 162.311 127.279L170.284 116.532L185.523 114.143C191.402 113.14 195.389 107.767 194.386 101.888L189.865 73.731C188.863 67.852 183.348 63.6463 177.469 64.6485Z" fill="#FF0B0B"/>
<path fill-rule="evenodd" clip-rule="evenodd" d="M157.403 95.0156C162.348 94.4116 165.866 89.9139 165.262 84.9698C164.658 80.0257 160.16 76.5073 155.216 77.1113C150.272 77.7153 146.754 82.213 147.358 87.1571C147.962 92.1013 152.459 95.6196 157.403 95.0156Z" fill="white"/>
<path fill-rule="evenodd" clip-rule="evenodd" d="M143.104 108.12L142.792 105.562C142.36 102.03 144.491 98.8646 147.552 98.4907L167.802 96.0167C170.863 95.6429 173.694 98.2099 174.124 101.734L174.437 104.292L143.104 108.12Z" fill="white"/>
<g opacity="0.7">
<path opacity="0.7" d="M75.8523 122.859L47.9531 149.902C44.6512 152.968 44.7257 157.893 47.792 161.195L62.4924 176.247C65.5586 179.549 70.4831 179.475 73.785 176.408L81.9369 168.343L91.9276 168.413C92.6494 168.568 93.1654 167.924 93.3205 167.202L93.3907 157.211L101.543 149.146C104.844 146.08 104.77 141.155 101.704 137.853L87.0033 122.801C84.2205 119.938 78.935 119.935 75.8523 122.859Z" fill="#FF0B0B"/>
<g opacity="0.7">
<path fill-rule="evenodd" clip-rule="evenodd" d="M77.093 151.209C79.8385 148.546 79.9054 144.162 77.2426 141.417C74.5798 138.671 70.1955 138.604 67.4501 141.267C64.7046 143.93 64.6377 148.314 67.3005 151.06C69.9633 153.805 74.3476 153.872 77.093 151.209Z" fill="white"/>
<path fill-rule="evenodd" clip-rule="evenodd" d="M74.4208 165.861L73.0433 164.44C71.1413 162.479 70.9768 159.553 72.6762 157.905L83.9213 146.999C85.6206 145.35 88.5439 145.608 90.442 147.565L91.8196 148.985L74.4208 165.861Z" fill="white"/>
</g>
</g>
<g opacity="0.7">
<path opacity="0.7" d="M151.902 24.6065L124.999 22.4125C122.034 22.153 119.249 24.575 118.989 27.5398L117.911 42.2224C117.651 45.1873 120.073 47.9731 123.038 48.2326L130.85 48.7785L135.41 53.9119C135.694 54.3503 136.274 54.2862 136.712 54.0028L141.846 49.4423L149.657 49.9881C152.622 50.2477 155.408 47.8257 155.668 44.8608L156.746 30.1783C157.289 27.6519 154.867 24.866 151.902 24.6065Z" fill="#FF0B0B"/>
<g opacity="0.7">
<path fill-rule="evenodd" clip-rule="evenodd" d="M137.773 37.8461C140.413 37.9691 142.653 35.9288 142.776 33.2888C142.899 30.6488 140.859 28.409 138.219 28.2859C135.579 28.1628 133.339 30.2032 133.216 32.8431C133.093 35.4831 135.133 37.723 137.773 37.8461Z" fill="white"/>
<path fill-rule="evenodd" clip-rule="evenodd" d="M129.129 43.4314L129.193 42.0657C129.281 40.18 130.677 38.7131 132.311 38.7892L143.124 39.2933C144.758 39.3695 146.011 40.9637 145.923 42.8456L145.86 44.2113L129.129 43.4314Z" fill="white"/>
</g>
</g>
</svg>
