<svg width="20" height="19" viewBox="0 0 20 19" fill="none" xmlns="http://www.w3.org/2000/svg">
<path d="M11.0689 13.555C12.6204 13.555 13.8206 13.0428 14.6696 12.0182C15.5185 10.9936 15.943 9.79333 15.943 8.41745C15.943 6.89521 15.3721 5.58519 14.2304 4.48742C13.0888 3.38964 11.7202 2.84075 10.1248 2.84075C8.52933 2.84075 7.16077 3.38964 6.01908 4.48742C4.87739 5.58519 4.30655 6.89521 4.30655 8.41745C4.30655 9.41277 4.57002 10.3349 5.09695 11.1839C5.27259 11.5059 5.53606 11.6669 5.88735 11.6669C6.15081 11.6669 6.37769 11.5717 6.56797 11.3815C6.75825 11.1912 6.85339 10.9789 6.85339 10.7447C6.85339 10.5984 6.79484 10.4374 6.67775 10.2617C6.35573 9.67624 6.19473 9.06148 6.19473 8.41745C6.19473 7.39286 6.57529 6.52196 7.33641 5.80475C8.09754 5.08753 9.01967 4.72893 10.1028 4.72893C11.1859 4.72893 12.1154 5.08753 12.8912 5.80475C13.6669 6.52196 14.0548 7.39286 14.0548 8.41745C14.0548 9.29568 13.8133 10.0495 13.3303 10.6789C12.8472 11.3083 12.0934 11.623 11.0689 11.623C10.7176 11.623 10.4248 11.4985 10.1906 11.2497C9.95644 11.0009 9.83934 10.7008 9.83934 10.3495C9.83934 10.0861 9.97839 9.66892 10.2565 9.09808C10.5346 8.52723 10.6737 8.00762 10.6737 7.53923C10.6737 6.71956 10.2199 6.30972 9.31241 6.30972C8.90257 6.30972 8.54397 6.47805 8.23659 6.8147C7.92921 7.15135 7.77552 7.6856 7.77552 8.41745C7.77552 8.65165 7.79016 8.88584 7.81943 9.12003C7.84871 9.35422 7.87798 9.52987 7.90726 9.64696L7.95117 9.7787L6.23864 15.0041L6.19473 15.1798V15.3115C6.19473 15.6042 6.28987 15.8531 6.48015 16.058C6.67043 16.2629 6.91194 16.3654 7.20468 16.3654C7.61452 16.3654 7.90726 16.1897 8.0829 15.8384L8.12681 15.8823L8.17072 15.7067L9.04894 12.6768C9.60515 13.2623 10.2785 13.555 11.0689 13.555ZM17.6116 0.25C18.1385 0.25 18.585 0.432963 18.9509 0.798888C19.3168 1.16481 19.4998 1.59661 19.4998 2.09426V17.1118C19.4998 17.6095 19.3168 18.0413 18.9509 18.4072C18.585 18.7731 18.1385 18.9561 17.6116 18.9561H2.63793C2.111 18.9561 1.66457 18.7731 1.29864 18.4072C0.932719 18.0413 0.749756 17.6095 0.749756 17.1118V2.09426C0.749756 1.59661 0.932719 1.16481 1.29864 0.798888C1.66457 0.432963 2.111 0.25 2.63793 0.25H17.6116Z" fill="white"/>
</svg>
