<svg width="50" height="50" viewBox="0 0 50 50" fill="none" xmlns="http://www.w3.org/2000/svg">
<path d="M25 0C11.1929 0 0 11.1929 0 25C0 38.8071 11.1929 50 25 50C38.8071 50 50 38.8071 50 25C50 11.1929 38.8071 0 25 0ZM35.8803 36.2818C35.5624 36.8257 34.9904 37.129 34.4027 37.1291C34.1097 37.1291 33.813 37.0537 33.5418 36.8953C29.0492 34.2698 23.8592 33.8478 20.2956 33.9562C16.3481 34.0763 13.4532 34.8556 13.4245 34.8635C12.5145 35.1121 11.5741 34.5766 11.3245 33.6667C11.075 32.757 11.6086 31.8172 12.5181 31.5667C12.6486 31.5308 15.7638 30.6846 20.0957 30.5418C22.6473 30.4576 25.1037 30.6354 27.3958 31.0702C30.2988 31.6209 32.947 32.5876 35.2669 33.9434C36.0821 34.4197 36.3567 35.4668 35.8803 36.2818ZM39.0586 29.6808C38.6822 30.3251 38.0045 30.6843 37.3084 30.6844C36.9614 30.6844 36.6098 30.5952 36.2885 30.4074C30.9671 27.2974 24.8192 26.7978 20.5982 26.9261C15.9222 27.0684 12.4931 27.9915 12.4591 28.0008C11.3815 28.2949 10.2673 27.661 9.97166 26.5833C9.67609 25.5056 10.3083 24.3925 11.3855 24.0956C11.5401 24.0531 15.23 23.0508 20.3613 22.8816C23.384 22.782 26.2936 22.9925 29.0085 23.5075C32.4473 24.1599 35.5841 25.3049 38.332 26.9108C39.2977 27.475 39.623 28.7153 39.0586 29.6808ZM41.0124 23.6788C40.5867 23.6788 40.1555 23.5694 39.7614 23.3391C27.1101 15.9454 10.699 20.341 10.5347 20.3863C9.21205 20.7508 7.8447 19.974 7.48038 18.6514C7.11595 17.3288 7.89275 15.9613 9.21532 15.597C9.40484 15.5448 13.931 14.3154 20.225 14.1078C23.9328 13.9858 27.5016 14.2439 30.8317 14.8756C35.0498 15.6758 38.8975 17.0802 42.268 19.0501C43.4524 19.7422 43.8514 21.2634 43.1593 22.4478C42.6974 23.2382 41.8663 23.6788 41.0124 23.6788Z" fill="#42D075"/>
</svg>
