<svg width="16" height="16" viewBox="0 0 16 16" fill="none" xmlns="http://www.w3.org/2000/svg">
<path d="M15.1875 0.1875H0.8125C0.466797 0.1875 0.1875 0.466797 0.1875 0.8125V15.1875C0.1875 15.5332 0.466797 15.8125 0.8125 15.8125H15.1875C15.5332 15.8125 15.8125 15.5332 15.8125 15.1875V0.8125C15.8125 0.466797 15.5332 0.1875 15.1875 0.1875ZM12.2051 5.84571C12.2109 5.9375 12.2109 6.03321 12.2109 6.12696C12.2109 8.99415 10.0274 12.2969 6.03711 12.2969C4.80664 12.2969 3.66602 11.9395 2.70508 11.3242C2.88086 11.3438 3.04883 11.3516 3.22852 11.3516C4.24414 11.3516 5.17774 11.0078 5.92188 10.4258C4.96875 10.4063 4.16797 9.78126 3.89453 8.92188C4.22852 8.97071 4.5293 8.97071 4.87305 8.88282C4.38228 8.78311 3.94116 8.51657 3.62464 8.12849C3.30812 7.7404 3.13572 7.25471 3.13672 6.75391V6.72657C3.42383 6.88868 3.76172 6.98829 4.11524 7.00196C3.81805 6.8039 3.57433 6.53557 3.40569 6.22077C3.23704 5.90596 3.14868 5.5544 3.14844 5.19727C3.14844 4.79297 3.25391 4.42383 3.44336 4.10352C3.98809 4.7741 4.66784 5.32255 5.43841 5.71322C6.20899 6.10389 7.05315 6.32804 7.91602 6.3711C7.60938 4.89649 8.71094 3.70313 10.0352 3.70313C10.6602 3.70313 11.2227 3.96485 11.6191 4.38672C12.1094 4.29493 12.5781 4.11133 12.9961 3.86524C12.834 4.36719 12.4942 4.79102 12.043 5.0586C12.4805 5.01172 12.9024 4.89063 13.293 4.72071C12.9981 5.1543 12.6289 5.53907 12.2051 5.84571Z" fill="white"/>
</svg>
