<svg width="18" height="18" viewBox="0 0 18 18" fill="none" xmlns="http://www.w3.org/2000/svg">
<path d="M7.79688 6.89454L11.5156 9.00782L7.79688 11.1211V6.89454ZM18 2.125V15.875C18 16.9102 17.1602 17.75 16.125 17.75H2.375C1.33984 17.75 0.5 16.9102 0.5 15.875V2.125C0.5 1.08984 1.33984 0.25 2.375 0.25H16.125C17.1602 0.25 18 1.08984 18 2.125ZM16.3594 9.01173C16.3594 9.01173 16.3594 6.6836 16.0625 5.56641C15.8984 4.94922 15.418 4.46485 14.8047 4.30078C13.6992 4 9.25001 4 9.25001 4C9.25001 4 4.80078 4 3.69532 4.30078C3.08203 4.46485 2.60156 4.94922 2.4375 5.56641C2.14063 6.67969 2.14063 9.01173 2.14063 9.01173C2.14063 9.01173 2.14063 11.3399 2.4375 12.457C2.60156 13.0742 3.08203 13.5391 3.69532 13.7031C4.80078 14 9.25001 14 9.25001 14C9.25001 14 13.6992 14 14.8047 13.6992C15.418 13.5352 15.8984 13.0703 16.0625 12.4531C16.3594 11.3399 16.3594 9.01173 16.3594 9.01173Z" fill="white"/>
</svg>
