<svg width="50" height="50" viewBox="0 0 50 50" fill="none" xmlns="http://www.w3.org/2000/svg">
<path d="M47.4472 13.2838C46.907 11.2756 45.3237 9.69263 43.3159 9.1519C39.6478 8.14825 24.975 8.14825 24.975 8.14825C24.975 8.14825 10.3028 8.14825 6.63471 9.11385C4.66547 9.65401 3.04356 11.2759 2.5034 13.2838C1.53809 16.9516 1.53809 24.5582 1.53809 24.5582C1.53809 24.5582 1.53809 32.2032 2.5034 35.8327C3.04413 37.8405 4.62685 39.4235 6.635 39.9643C10.3415 40.9682 24.9756 40.9682 24.9756 40.9682C24.9756 40.9682 39.6478 40.9682 43.3159 40.0026C45.324 39.4622 46.907 37.8791 47.4478 35.8713C48.4128 32.2032 48.4128 24.5968 48.4128 24.5968C48.4128 24.5968 48.4514 16.9516 47.4472 13.2838V13.2838ZM20.3035 31.5855V17.531L32.5047 24.5582L20.3035 31.5855Z" fill="#C8392D"/>
</svg>
